<svg id="svg" version="1.1" xmlns="http://www.w3.org/2000/svg" xmlns:xlink="http://www.w3.org/1999/xlink" width="400" height="400" viewBox="0, 0, 400,400"><g id="svgg"><path id="path0" d="M80.859 0.269 C 40.456 4.670,8.557 34.412,1.128 74.609 C 0.250 79.359,-0.613 135.156,0.192 135.156 C 0.318 135.156,3.546 134.372,7.364 133.413 C 11.181 132.454,17.898 130.860,22.289 129.869 C 26.681 128.879,34.053 127.102,38.672 125.920 C 60.948 120.222,86.744 116.527,111.914 115.428 C 114.922 115.297,121.602 114.941,126.758 114.636 C 151.399 113.182,155.049 113.088,186.914 113.087 C 219.017 113.086,225.932 113.268,247.070 114.671 C 297.873 118.041,343.176 124.990,388.006 136.288 L 400.036 139.320 399.907 109.406 C 399.780 80.091,399.759 79.394,398.874 74.609 C 391.845 36.638,363.482 8.269,325.391 1.113 L 320.508 0.195 201.367 0.158 C 135.840 0.137,81.611 0.187,80.859 0.269 " stroke="none" fill="#26c2f9" fill-rule="evenodd"></path><path id="path1" d="M158.594 113.122 C 157.197 113.192,151.309 113.451,145.508 113.697 C 139.707 113.943,131.621 114.354,127.539 114.609 L 120.117 115.074 136.523 115.324 C 226.178 116.693,320.766 149.505,393.359 204.418 L 399.805 209.293 399.904 174.492 C 399.959 155.352,399.871 139.566,399.709 139.412 C 399.299 139.024,377.673 133.633,367.969 131.499 C 325.138 122.082,283.872 116.663,233.398 113.827 C 223.392 113.264,166.487 112.729,158.594 113.122 M37.500 127.754 C 35.459 127.917,32.533 128.156,30.997 128.286 C 27.827 128.553,23.469 129.489,9.668 132.864 L 0.000 135.229 0.000 193.005 L 0.000 250.781 113.664 250.781 L 227.327 250.781 226.856 249.707 C 213.121 218.355,180.705 180.120,150.195 159.286 C 117.752 137.131,73.857 124.849,37.500 127.754 " stroke="none" fill="#4ab411" fill-rule="evenodd"></path><path id="path2" d="M109.570 115.477 C 82.413 117.125,60.345 120.390,38.294 126.023 C 30.197 128.091,27.789 128.869,31.055 128.362 C 62.370 123.505,108.783 134.064,140.911 153.357 C 174.068 173.267,205.521 207.652,224.222 244.434 L 227.449 250.781 276.615 250.781 C 309.132 250.781,325.781 250.649,325.781 250.391 C 325.781 250.176,325.967 250.000,326.195 250.000 C 326.422 250.000,326.518 250.146,326.407 250.326 C 326.297 250.505,326.462 250.651,326.775 250.651 C 327.546 250.651,327.495 250.142,326.692 249.834 C 326.334 249.696,325.860 249.765,325.638 249.987 C 325.123 250.502,324.219 250.510,324.219 250.000 C 324.219 249.785,324.482 249.609,324.805 249.609 C 325.467 249.609,325.591 248.998,325.002 248.634 C 324.788 248.502,324.410 248.837,324.163 249.380 C 323.643 250.522,322.892 250.321,323.267 249.140 C 323.447 248.572,323.368 248.396,322.990 248.525 C 322.473 248.700,320.432 246.193,320.613 245.605 C 320.663 245.444,320.548 245.313,320.357 245.313 C 320.167 245.313,318.808 243.687,317.337 241.699 C 309.047 230.499,296.666 217.433,285.228 207.813 C 278.181 201.886,278.448 202.315,280.211 199.750 C 282.344 196.646,285.289 195.139,290.820 194.320 C 291.680 194.193,293.179 193.901,294.152 193.672 C 298.613 192.622,318.186 207.302,330.584 220.995 C 336.919 227.992,348.047 241.847,348.047 242.738 C 348.047 242.896,348.312 243.290,348.636 243.614 C 348.961 243.938,349.109 244.392,348.967 244.623 C 348.817 244.865,348.890 244.930,349.139 244.776 C 349.597 244.493,350.391 245.657,350.391 246.612 C 350.391 247.371,349.166 247.813,348.783 247.193 C 348.616 246.923,348.568 246.614,348.675 246.507 C 348.783 246.400,349.034 246.570,349.234 246.886 C 349.539 247.368,349.598 247.351,349.603 246.777 C 349.610 246.024,348.952 245.900,348.047 246.484 C 347.587 246.782,347.576 246.864,347.997 246.869 C 348.422 246.874,348.435 246.993,348.061 247.444 C 347.801 247.757,347.680 248.161,347.792 248.341 C 347.904 248.522,347.834 248.925,347.636 249.237 C 347.390 249.627,347.276 249.651,347.272 249.316 C 347.268 249.048,346.895 248.828,346.443 248.828 C 345.820 248.828,345.683 248.995,345.880 249.512 C 346.081 250.039,346.034 250.090,345.674 249.733 C 344.981 249.045,345.521 248.057,346.489 248.243 C 347.186 248.377,347.295 248.237,347.192 247.346 C 347.093 246.488,346.893 246.309,346.131 246.393 C 345.615 246.450,344.874 246.209,344.485 245.857 C 343.813 245.249,343.802 245.267,344.253 246.234 C 344.581 246.939,344.937 247.185,345.410 247.037 C 346.247 246.774,346.306 247.384,345.508 248.047 C 345.186 248.314,344.922 248.803,344.922 249.132 C 344.922 249.665,344.847 249.666,344.238 249.143 C 343.349 248.380,342.271 248.006,342.115 248.408 C 341.924 248.901,340.234 249.326,340.234 248.881 C 340.234 248.666,340.630 248.362,341.113 248.206 C 341.982 247.924,341.980 247.916,340.922 247.478 C 340.333 247.234,339.573 246.691,339.232 246.271 C 338.892 245.851,338.716 245.713,338.841 245.963 C 338.965 246.213,338.847 246.507,338.577 246.615 C 338.286 246.733,338.370 246.826,338.783 246.844 C 339.373 246.870,339.412 247.004,339.034 247.709 C 338.712 248.311,338.505 248.408,338.288 248.058 C 338.065 247.697,337.917 247.688,337.709 248.024 C 337.502 248.359,337.272 248.345,336.816 247.968 C 336.302 247.544,336.233 247.557,336.395 248.047 C 336.501 248.369,336.975 248.653,337.447 248.678 C 337.919 248.702,338.417 248.834,338.553 248.970 C 338.689 249.106,337.890 249.142,336.776 249.049 C 335.599 248.951,334.845 249.031,334.975 249.241 C 335.097 249.439,334.924 249.496,334.591 249.368 C 333.803 249.065,333.808 248.438,334.598 248.438 C 335.149 248.438,335.147 248.372,334.580 247.805 C 333.727 246.952,333.398 247.685,333.551 250.098 C 333.605 250.957,335.250 251.024,335.938 250.195 C 336.502 249.515,337.109 249.426,337.109 250.023 C 337.109 250.251,336.934 250.328,336.719 250.195 C 336.504 250.063,336.328 250.140,336.328 250.368 C 336.328 250.994,344.019 250.922,344.273 250.293 C 344.430 249.902,344.476 249.902,344.500 250.293 C 344.525 250.679,350.355 250.781,372.266 250.781 L 400.000 250.781 400.000 230.103 L 400.000 209.424 392.871 204.069 C 326.786 154.422,244.510 123.324,160.352 116.182 C 153.371 115.589,116.219 115.074,109.570 115.477 M129.234 122.443 C 137.041 122.957,143.503 123.451,143.593 123.541 C 143.758 123.706,129.637 126.706,125.217 127.445 C 123.187 127.784,121.798 127.668,115.430 126.624 C 101.931 124.412,92.900 123.519,82.910 123.409 C 77.352 123.347,76.779 122.931,81.348 122.273 C 90.782 120.914,106.866 120.971,129.234 122.443 M191.797 134.025 C 199.340 135.799,208.542 139.010,214.041 141.786 C 215.293 142.418,220.863 144.177,226.420 145.695 C 239.714 149.327,274.930 158.887,301.563 166.094 C 322.758 171.830,343.120 177.391,343.750 177.616 C 344.615 177.925,345.138 177.822,323.438 181.623 C 312.373 183.561,298.574 186.011,292.773 187.067 C 286.973 188.124,282.111 188.873,281.969 188.732 C 281.827 188.592,279.513 184.731,276.827 180.152 L 271.944 171.828 271.300 174.042 C 270.946 175.260,270.727 176.326,270.813 176.412 C 270.898 176.497,271.180 175.863,271.437 175.003 C 271.695 174.142,272.075 173.438,272.281 173.438 C 272.843 173.438,272.733 174.604,272.168 174.640 C 271.777 174.665,271.777 174.710,272.168 174.868 C 272.437 174.976,272.656 175.237,272.656 175.446 C 272.656 175.656,272.453 175.702,272.205 175.549 C 271.938 175.384,271.860 175.441,272.013 175.688 C 272.583 176.611,271.488 178.405,270.869 177.562 C 270.077 176.483,270.178 177.166,270.996 178.417 C 271.479 179.156,271.517 179.362,271.125 179.120 C 270.707 178.863,270.632 178.939,270.820 179.428 C 270.958 179.788,270.880 180.078,270.645 180.078 C 270.412 180.078,270.308 180.410,270.414 180.816 C 270.687 181.858,270.049 182.815,269.574 182.077 C 269.185 181.473,268.260 184.269,262.356 203.906 C 260.321 210.674,257.341 220.518,255.734 225.781 C 254.127 231.045,252.606 236.121,252.354 237.061 C 251.736 239.371,251.872 239.605,246.368 226.758 C 242.214 217.060,228.881 186.015,220.113 165.625 C 218.681 162.295,217.023 158.514,216.428 157.223 C 215.833 155.932,215.225 154.491,215.075 154.020 C 214.733 152.940,213.757 153.255,213.848 154.415 C 213.995 156.291,214.386 156.447,202.724 149.971 C 191.646 143.820,179.359 138.906,169.048 136.502 C 165.116 135.585,164.974 135.643,175.297 133.963 C 185.035 132.379,184.799 132.378,191.797 134.025 M269.531 184.135 C 269.531 184.218,269.269 184.789,268.948 185.405 C 268.339 186.573,268.204 186.360,268.606 184.863 C 268.797 184.150,269.531 183.572,269.531 184.135 M340.339 245.889 C 339.843 246.453,341.158 247.253,341.696 246.715 C 341.823 246.588,341.613 246.484,341.228 246.484 C 340.651 246.484,340.614 246.382,341.016 245.898 C 341.630 245.159,340.990 245.150,340.339 245.889 M331.517 245.996 C 331.424 246.157,331.458 246.589,331.592 246.955 C 331.800 247.522,331.903 247.479,332.287 246.662 C 332.718 245.747,332.013 245.138,331.517 245.996 M324.219 247.266 C 324.219 247.995,324.323 248.099,324.688 247.734 C 325.052 247.370,325.052 247.161,324.688 246.797 C 324.323 246.432,324.219 246.536,324.219 247.266 M326.022 248.266 C 325.716 249.062,326.437 249.696,327.392 249.469 C 327.830 249.364,327.972 249.523,327.852 249.982 C 327.708 250.533,327.982 250.650,329.464 250.670 C 331.365 250.696,331.621 250.427,330.637 249.443 C 330.174 248.980,329.839 248.929,329.270 249.233 C 328.670 249.554,328.516 249.508,328.516 249.011 C 328.516 248.571,328.292 248.456,327.763 248.624 C 327.281 248.777,326.881 248.631,326.650 248.217 C 326.318 247.625,326.266 247.629,326.022 248.266 M339.963 247.908 C 339.707 248.012,339.594 248.350,339.712 248.658 C 339.831 248.966,339.748 249.219,339.529 249.219 C 339.212 249.219,339.167 248.591,339.423 247.754 C 339.440 247.700,339.673 247.670,339.941 247.687 C 340.304 247.710,340.310 247.767,339.963 247.908 M331.785 248.703 C 331.927 248.957,331.873 249.270,331.664 249.400 C 331.087 249.756,331.633 250.781,332.399 250.781 C 332.769 250.781,333.073 250.515,333.073 250.190 C 333.073 249.778,332.825 249.667,332.259 249.825 C 331.617 250.003,331.568 249.967,332.028 249.651 C 332.524 249.311,332.530 249.176,332.068 248.747 C 331.731 248.433,331.624 248.417,331.785 248.703 M258.850 280.792 C 258.296 281.405,258.203 282.574,258.203 288.969 L 258.203 296.431 249.512 296.555 C 236.131 296.747,232.135 299.793,229.785 311.592 L 229.071 315.177 226.674 316.941 C 222.410 320.080,222.266 320.467,222.266 328.734 C 222.266 337.433,222.370 337.629,227.021 337.671 L 229.814 337.695 230.268 335.742 C 233.417 322.200,253.062 322.406,254.925 336.002 L 255.163 337.738 266.156 337.580 C 272.202 337.492,277.251 337.307,277.376 337.167 C 277.500 337.028,277.812 336.178,278.067 335.278 C 278.630 333.298,281.024 330.180,283.151 328.657 C 284.587 327.629,284.777 327.273,285.516 324.219 C 287.775 314.890,293.322 308.628,300.703 307.076 C 302.062 306.790,309.335 306.641,321.894 306.641 L 341.016 306.641 341.061 298.926 C 341.145 284.644,341.021 281.515,340.340 280.762 C 339.359 279.675,259.834 279.705,258.850 280.792 M83.594 283.702 C 81.602 284.776,47.615 310.675,47.214 311.425 C 45.527 314.577,45.141 314.160,65.935 331.625 C 85.558 348.106,85.116 347.824,87.771 345.542 L 88.867 344.600 88.986 336.162 L 89.106 327.723 101.291 327.826 L 113.477 327.930 113.579 342.285 L 113.682 356.641 125.218 356.641 L 136.755 356.641 136.639 334.277 C 136.466 300.706,138.004 302.360,106.934 302.350 L 89.063 302.344 89.063 294.147 L 89.063 285.950 87.988 284.771 C 86.730 283.389,84.968 282.961,83.594 283.702 M251.475 309.473 L 251.582 315.625 243.770 315.625 L 235.957 315.625 236.178 314.355 C 237.726 305.452,240.018 303.244,247.656 303.295 L 251.367 303.320 251.475 309.473 M301.030 311.919 C 295.241 313.389,290.643 319.835,289.636 327.894 C 289.400 329.783,289.189 330.182,287.945 331.100 C 282.488 335.123,281.875 336.595,282.089 345.174 C 282.242 351.330,282.467 351.911,285.022 352.754 C 287.618 353.611,290.115 352.911,290.426 351.238 C 292.908 337.894,311.543 337.186,314.869 350.310 C 315.211 351.662,315.609 352.760,315.754 352.751 C 315.898 352.742,321.641 352.734,328.516 352.734 L 341.016 352.734 341.016 351.772 C 341.016 349.797,342.624 346.490,344.541 344.522 C 351.528 337.348,363.886 341.061,365.550 350.833 L 365.840 352.539 369.625 352.651 C 375.541 352.825,375.000 354.961,375.000 331.445 L 375.000 311.719 372.949 311.701 C 343.589 311.450,302.385 311.575,301.030 311.919 M311.719 324.219 L 311.719 330.078 304.052 330.078 L 296.385 330.078 296.641 328.474 C 297.841 320.968,300.646 318.361,307.520 318.360 L 311.719 318.359 311.719 324.219 M238.672 330.559 C 232.570 333.791,232.724 342.746,238.930 345.587 C 248.367 349.907,255.833 337.042,247.346 331.084 C 244.987 329.427,241.236 329.200,238.672 330.559 M298.792 345.831 C 293.598 348.573,293.004 356.351,297.728 359.773 C 303.349 363.845,311.127 359.971,311.076 353.125 C 311.028 346.795,304.409 342.865,298.792 345.831 M350.658 345.299 C 346.105 346.750,343.779 352.801,346.136 357.063 C 349.778 363.652,359.712 362.258,361.352 354.927 C 362.732 348.762,356.734 343.362,350.658 345.299 " stroke="none" fill="#413833" fill-rule="evenodd"></path><path id="path3" d="M90.625 121.481 C 79.020 122.109,74.207 123.312,82.910 123.409 C 92.900 123.519,101.931 124.412,115.430 126.624 C 121.798 127.668,123.187 127.784,125.217 127.445 C 129.637 126.706,143.758 123.706,143.593 123.541 C 142.626 122.574,100.613 120.939,90.625 121.481 M175.297 133.963 C 164.974 135.643,165.116 135.585,169.048 136.502 C 179.359 138.906,191.646 143.820,202.724 149.971 C 214.403 156.456,213.995 156.294,213.847 154.395 C 213.809 153.911,213.934 153.516,214.123 153.516 C 214.596 153.516,214.146 151.862,212.824 148.742 C 212.211 147.299,211.733 145.981,211.761 145.813 C 211.880 145.090,211.695 144.500,211.405 144.679 C 211.232 144.786,211.101 144.401,211.112 143.823 C 211.125 143.151,210.947 142.812,210.615 142.881 C 210.331 142.940,210.202 142.820,210.329 142.615 C 210.586 142.198,212.444 142.993,223.047 148.056 C 227.021 149.955,239.530 155.897,250.843 161.262 L 271.413 171.016 278.382 171.657 C 311.904 174.738,339.887 177.378,341.016 177.567 C 344.718 178.185,340.643 176.819,331.641 174.423 C 326.162 172.964,318.252 170.842,314.063 169.705 C 309.873 168.569,303.369 166.826,299.609 165.831 C 295.850 164.837,288.643 162.892,283.594 161.508 C 269.053 157.523,252.983 153.152,247.461 151.682 C 228.564 146.649,216.904 143.227,214.453 141.992 C 208.507 138.998,199.558 135.851,191.797 134.025 C 184.799 132.378,185.035 132.379,175.297 133.963 M215.262 153.711 C 215.262 153.926,215.513 154.541,215.820 155.078 C 216.127 155.615,216.379 155.879,216.379 155.664 C 216.379 155.449,216.127 154.834,215.820 154.297 C 215.513 153.760,215.262 153.496,215.262 153.711 M294.453 193.568 C 294.338 193.683,293.122 193.948,291.751 194.158 C 285.199 195.160,282.450 196.493,280.211 199.750 C 278.448 202.315,278.181 201.886,285.228 207.813 C 296.666 217.433,309.047 230.499,317.337 241.699 C 318.808 243.687,320.167 245.313,320.357 245.313 C 320.548 245.313,320.663 245.444,320.613 245.605 C 320.432 246.193,322.473 248.700,322.990 248.525 C 323.368 248.396,323.447 248.572,323.267 249.140 C 322.892 250.321,323.643 250.522,324.163 249.380 C 324.410 248.837,324.788 248.502,325.002 248.634 C 325.591 248.998,325.467 249.609,324.805 249.609 C 324.482 249.609,324.219 249.785,324.219 250.000 C 324.219 250.510,325.123 250.502,325.638 249.987 C 325.860 249.765,326.334 249.696,326.692 249.834 C 327.495 250.142,327.546 250.651,326.775 250.651 C 326.462 250.651,326.297 250.505,326.407 250.326 C 326.518 250.146,326.422 250.000,326.195 250.000 C 325.967 250.000,325.781 250.176,325.781 250.391 C 325.781 250.650,271.224 250.781,162.891 250.781 L 0.000 250.781 0.008 284.082 C 0.014 310.397,0.130 318.246,0.563 321.496 C 6.002 362.345,37.655 393.998,78.504 399.437 C 84.644 400.255,315.356 400.255,321.496 399.437 C 358.112 394.562,388.222 368.042,397.309 332.663 C 399.829 322.850,399.731 324.622,399.890 286.035 L 400.035 250.781 372.316 250.781 C 350.506 250.781,344.554 250.677,344.399 250.293 C 344.242 249.902,344.196 249.902,344.171 250.293 C 344.132 250.925,336.328 250.999,336.328 250.368 C 336.328 250.140,336.504 250.063,336.719 250.195 C 336.934 250.328,337.109 250.251,337.109 250.023 C 337.109 249.426,336.502 249.515,335.938 250.195 C 335.250 251.024,333.605 250.957,333.551 250.098 C 333.398 247.685,333.727 246.952,334.580 247.805 C 335.147 248.372,335.149 248.438,334.598 248.438 C 333.808 248.438,333.803 249.065,334.591 249.368 C 334.924 249.496,335.097 249.439,334.975 249.241 C 334.845 249.031,335.599 248.951,336.776 249.049 C 337.890 249.142,338.689 249.106,338.553 248.970 C 338.417 248.834,337.919 248.702,337.447 248.678 C 336.975 248.653,336.501 248.369,336.395 248.047 C 336.233 247.557,336.302 247.544,336.816 247.968 C 337.272 248.345,337.502 248.359,337.709 248.024 C 337.917 247.688,338.065 247.697,338.288 248.058 C 338.505 248.408,338.712 248.311,339.034 247.709 C 339.412 247.004,339.373 246.870,338.783 246.844 C 338.370 246.826,338.286 246.733,338.577 246.615 C 338.847 246.507,338.965 246.213,338.841 245.963 C 338.716 245.713,338.892 245.851,339.232 246.271 C 339.573 246.691,340.333 247.234,340.922 247.478 C 341.980 247.916,341.982 247.924,341.113 248.206 C 340.630 248.362,340.234 248.666,340.234 248.881 C 340.234 249.326,341.924 248.901,342.115 248.408 C 342.271 248.006,343.349 248.380,344.238 249.143 C 344.847 249.666,344.922 249.665,344.922 249.132 C 344.922 248.803,345.186 248.314,345.508 248.047 C 346.306 247.384,346.247 246.774,345.410 247.037 C 344.937 247.185,344.581 246.939,344.253 246.234 C 343.802 245.267,343.813 245.249,344.485 245.857 C 344.874 246.209,345.615 246.450,346.131 246.393 C 346.893 246.309,347.093 246.488,347.192 247.346 C 347.295 248.237,347.186 248.377,346.489 248.243 C 345.521 248.057,344.981 249.045,345.674 249.733 C 346.034 250.090,346.081 250.039,345.880 249.512 C 345.683 248.995,345.820 248.828,346.443 248.828 C 346.895 248.828,347.268 249.048,347.272 249.316 C 347.276 249.651,347.390 249.627,347.636 249.237 C 347.834 248.925,347.904 248.522,347.792 248.341 C 347.680 248.161,347.801 247.757,348.061 247.444 C 348.435 246.993,348.422 246.874,347.997 246.869 C 347.576 246.864,347.587 246.782,348.047 246.484 C 348.952 245.900,349.610 246.024,349.603 246.777 C 349.598 247.351,349.539 247.368,349.234 246.886 C 349.034 246.570,348.783 246.400,348.675 246.507 C 348.568 246.614,348.616 246.923,348.783 247.193 C 349.166 247.813,350.391 247.371,350.391 246.612 C 350.391 245.657,349.597 244.493,349.139 244.776 C 348.890 244.930,348.817 244.865,348.967 244.623 C 349.109 244.392,348.961 243.938,348.636 243.614 C 348.312 243.290,348.047 242.896,348.047 242.738 C 348.047 241.847,336.919 227.992,330.584 220.995 C 318.890 208.079,296.749 191.272,294.453 193.568 M341.016 245.898 C 340.614 246.382,340.651 246.484,341.228 246.484 C 341.613 246.484,341.823 246.588,341.696 246.715 C 341.158 247.253,339.843 246.453,340.339 245.889 C 340.990 245.150,341.630 245.159,341.016 245.898 M332.287 246.662 C 331.903 247.479,331.800 247.522,331.592 246.955 C 331.294 246.143,331.512 245.703,332.213 245.703 C 332.634 245.703,332.649 245.895,332.287 246.662 M324.688 247.734 C 324.323 248.099,324.219 247.995,324.219 247.266 C 324.219 246.536,324.323 246.432,324.688 246.797 C 325.052 247.161,325.052 247.370,324.688 247.734 M327.763 248.624 C 328.292 248.456,328.516 248.571,328.516 249.011 C 328.516 249.508,328.670 249.554,329.270 249.233 C 329.839 248.929,330.174 248.980,330.637 249.443 C 331.621 250.427,331.365 250.696,329.464 250.670 C 327.982 250.650,327.708 250.533,327.852 249.982 C 327.972 249.523,327.830 249.364,327.392 249.469 C 326.437 249.696,325.716 249.062,326.022 248.266 C 326.266 247.629,326.318 247.625,326.650 248.217 C 326.881 248.631,327.281 248.777,327.763 248.624 M339.423 247.754 C 339.167 248.591,339.212 249.219,339.529 249.219 C 339.748 249.219,339.831 248.966,339.712 248.658 C 339.594 248.350,339.707 248.012,339.963 247.908 C 340.310 247.767,340.304 247.710,339.941 247.687 C 339.673 247.670,339.440 247.700,339.423 247.754 M332.028 249.651 C 331.568 249.967,331.617 250.003,332.259 249.825 C 332.825 249.667,333.073 249.778,333.073 250.190 C 333.073 250.515,332.769 250.781,332.399 250.781 C 331.633 250.781,331.087 249.756,331.664 249.400 C 331.873 249.270,331.927 248.957,331.785 248.703 C 331.624 248.417,331.731 248.433,332.068 248.747 C 332.530 249.176,332.524 249.311,332.028 249.651 M340.413 280.841 C 341.154 281.660,341.259 284.667,341.088 300.098 L 341.016 306.641 321.762 306.641 C 305.676 306.641,302.125 306.740,300.180 307.243 C 292.907 309.126,287.997 314.707,285.721 323.677 C 284.954 326.703,284.564 327.578,283.694 328.233 C 280.486 330.649,278.541 333.409,277.508 337.012 C 277.402 337.382,275.447 337.501,269.446 337.502 C 265.089 337.504,260.100 337.615,258.361 337.751 L 255.199 337.997 254.951 336.188 C 253.042 322.263,232.323 322.330,230.233 336.268 L 229.977 337.971 227.099 337.826 C 224.623 337.701,224.079 337.538,223.201 336.660 L 222.181 335.640 222.200 328.783 C 222.224 320.238,222.351 319.945,227.642 316.199 C 228.838 315.352,229.282 314.766,229.289 314.027 C 229.319 310.335,232.161 303.457,234.870 300.518 C 238.137 296.974,239.143 296.698,249.316 296.556 L 258.203 296.432 258.203 288.969 C 258.203 282.574,258.296 281.405,258.850 280.792 C 259.896 279.637,339.366 279.684,340.413 280.841 M87.113 283.854 C 88.903 284.911,89.063 285.766,89.063 294.334 L 89.063 302.303 108.105 302.421 C 138.203 302.608,136.719 300.886,136.719 335.619 L 136.719 356.641 125.200 356.641 L 113.682 356.641 113.579 342.285 L 113.477 327.930 101.270 327.826 L 89.063 327.723 89.063 335.962 L 89.063 344.201 87.921 345.343 C 85.697 347.566,84.406 347.141,78.619 342.285 C 49.274 317.663,47.304 315.948,46.878 314.657 C 45.964 311.887,46.106 311.753,65.048 297.460 C 85.839 281.774,84.740 282.452,87.113 283.854 M240.647 304.533 C 238.467 306.368,237.483 308.564,236.160 314.551 L 235.923 315.625 243.743 315.625 L 251.563 315.625 251.563 309.570 L 251.563 303.516 246.710 303.516 C 242.051 303.516,241.808 303.556,240.647 304.533 M374.906 331.344 C 375.027 354.954,375.584 352.734,369.531 352.734 L 365.625 352.734 365.625 351.465 C 365.624 348.506,362.268 343.668,359.105 342.067 C 351.504 338.219,341.016 343.992,341.016 352.024 C 341.016 352.690,340.446 352.736,331.934 352.753 C 326.938 352.763,321.164 352.867,319.101 352.984 L 315.350 353.197 315.105 351.406 C 313.234 337.754,293.239 337.337,290.572 350.895 L 290.114 353.220 287.212 353.034 C 282.526 352.733,282.258 352.300,282.102 344.763 C 281.929 336.426,282.627 334.737,287.680 331.260 C 289.188 330.223,289.284 330.032,289.735 327.200 C 290.619 321.641,293.666 315.944,296.900 313.804 C 300.795 311.226,298.748 311.342,338.672 311.437 L 374.805 311.523 374.906 331.344 M302.595 318.778 C 299.900 319.544,297.574 323.396,296.655 328.613 L 296.397 330.078 304.069 330.078 L 311.740 330.078 311.632 324.316 L 311.523 318.555 307.617 318.508 C 305.469 318.482,303.209 318.604,302.595 318.778 M247.346 331.084 C 253.955 335.724,251.160 345.905,243.138 346.415 C 235.939 346.874,231.622 339.314,235.667 333.334 C 238.264 329.494,243.614 328.463,247.346 331.084 M306.445 345.608 C 312.703 348.690,312.670 357.513,306.389 360.685 C 300.983 363.415,294.519 359.332,294.472 353.157 C 294.424 347.010,300.945 342.898,306.445 345.608 M356.864 345.661 C 361.747 347.879,363.194 354.434,359.684 358.432 C 354.549 364.281,345.116 360.830,345.174 353.125 C 345.221 347.038,351.320 343.143,356.864 345.661 " stroke="none" fill="#e1d1ae" fill-rule="evenodd"></path><path id="path4" d="M210.329 142.615 C 210.202 142.820,210.331 142.940,210.615 142.881 C 210.947 142.812,211.125 143.151,211.112 143.823 C 211.101 144.401,211.214 144.797,211.364 144.704 C 211.514 144.612,211.741 144.808,211.869 145.140 C 212.000 145.481,211.935 145.641,211.720 145.508 C 211.510 145.379,211.709 146.117,212.161 147.148 C 212.613 148.180,213.306 149.902,213.701 150.977 C 214.096 152.051,214.596 152.888,214.813 152.837 C 215.029 152.786,215.095 153.034,214.959 153.389 C 214.809 153.780,214.869 153.937,215.111 153.787 C 215.331 153.651,215.712 153.982,215.959 154.523 C 216.583 155.894,216.493 156.255,215.820 155.078 C 215.006 153.654,215.113 154.314,216.034 156.396 C 216.821 158.174,217.374 158.858,216.943 157.520 C 216.758 156.943,216.789 156.928,217.142 157.422 C 217.372 157.744,217.458 158.337,217.332 158.740 C 217.169 159.264,217.244 159.386,217.597 159.168 C 217.907 158.977,217.992 159.022,217.826 159.290 C 217.681 159.524,218.722 162.408,220.140 165.698 C 224.800 176.515,241.419 215.204,246.368 226.758 C 251.872 239.605,251.736 239.371,252.354 237.061 C 252.606 236.121,254.127 231.045,255.734 225.781 C 257.341 220.518,260.321 210.674,262.356 203.906 C 268.260 184.269,269.185 181.473,269.574 182.077 C 270.049 182.815,270.687 181.858,270.414 180.816 C 270.308 180.410,270.412 180.078,270.645 180.078 C 270.880 180.078,270.958 179.788,270.820 179.428 C 270.632 178.939,270.707 178.863,271.125 179.120 C 271.517 179.362,271.479 179.156,270.996 178.417 C 270.178 177.166,270.077 176.483,270.869 177.562 C 271.488 178.405,272.583 176.611,272.013 175.688 C 271.860 175.441,271.938 175.384,272.205 175.549 C 272.453 175.702,272.656 175.656,272.656 175.446 C 272.656 175.237,272.437 174.976,272.168 174.868 C 271.777 174.710,271.777 174.665,272.168 174.640 C 272.733 174.604,272.843 173.438,272.281 173.438 C 272.075 173.438,271.695 174.142,271.437 175.003 C 271.180 175.863,270.898 176.497,270.813 176.412 C 270.727 176.326,270.947 175.260,271.301 174.042 L 271.944 171.828 276.962 180.347 C 281.757 188.491,282.027 188.862,283.079 188.740 C 283.685 188.671,291.826 187.240,301.172 185.561 C 310.518 183.881,324.000 181.491,331.133 180.248 C 343.431 178.106,345.065 177.686,342.791 177.252 C 342.255 177.149,341.920 177.227,342.042 177.425 C 342.170 177.632,341.710 177.690,340.956 177.561 C 339.876 177.377,311.914 174.739,278.382 171.657 L 271.413 171.016 250.843 161.262 C 239.530 155.897,227.021 149.955,223.047 148.056 C 212.444 142.993,210.586 142.198,210.329 142.615 M236.914 148.776 C 237.344 148.964,238.311 149.229,239.063 149.365 C 240.001 149.536,240.185 149.506,239.648 149.271 C 239.219 149.083,238.252 148.818,237.500 148.682 C 236.561 148.511,236.378 148.541,236.914 148.776 M241.211 150.000 C 241.641 150.185,242.256 150.336,242.578 150.336 C 242.947 150.336,242.875 150.212,242.383 150.000 C 241.953 149.815,241.338 149.664,241.016 149.664 C 240.646 149.664,240.719 149.788,241.211 150.000 M245.508 151.172 C 245.938 151.357,246.553 151.508,246.875 151.508 C 247.244 151.508,247.172 151.383,246.680 151.172 C 246.250 150.987,245.635 150.836,245.313 150.836 C 244.943 150.836,245.015 150.960,245.508 151.172 M262.695 155.807 C 263.125 155.995,264.092 156.260,264.844 156.397 C 265.782 156.567,265.966 156.537,265.430 156.303 C 265.000 156.115,264.033 155.849,263.281 155.713 C 262.343 155.543,262.159 155.572,262.695 155.807 M268.555 157.422 C 268.984 157.607,269.600 157.758,269.922 157.758 C 270.291 157.758,270.219 157.633,269.727 157.422 C 269.297 157.237,268.682 157.086,268.359 157.086 C 267.990 157.086,268.062 157.210,268.555 157.422 M290.039 163.229 C 290.469 163.417,291.436 163.682,292.188 163.818 C 293.126 163.989,293.310 163.959,292.773 163.724 C 292.344 163.536,291.377 163.271,290.625 163.135 C 289.686 162.964,289.503 162.994,290.039 163.229 M295.898 164.844 C 296.328 165.028,296.943 165.179,297.266 165.179 C 297.635 165.179,297.563 165.055,297.070 164.844 C 296.641 164.659,296.025 164.508,295.703 164.508 C 295.334 164.508,295.406 164.632,295.898 164.844 M316.211 170.313 C 316.641 170.497,317.256 170.648,317.578 170.648 C 317.947 170.648,317.875 170.524,317.383 170.313 C 316.953 170.128,316.338 169.977,316.016 169.977 C 315.646 169.977,315.719 170.101,316.211 170.313 M320.508 171.484 C 320.938 171.669,321.553 171.820,321.875 171.820 C 322.244 171.820,322.172 171.696,321.680 171.484 C 321.250 171.300,320.635 171.149,320.313 171.149 C 319.943 171.149,320.015 171.273,320.508 171.484 M268.606 184.863 C 268.204 186.360,268.339 186.573,268.948 185.405 C 269.628 184.100,269.647 183.984,269.186 183.984 C 268.996 183.984,268.735 184.380,268.606 184.863 M341.106 287.500 C 341.106 288.252,341.187 288.560,341.285 288.184 C 341.383 287.808,341.383 287.192,341.285 286.816 C 341.187 286.440,341.106 286.748,341.106 287.500 M246.587 303.405 C 247.181 303.495,248.060 303.493,248.541 303.400 C 249.021 303.307,248.535 303.234,247.461 303.237 C 246.387 303.240,245.994 303.316,246.587 303.405 M316.710 311.615 C 317.628 311.697,319.035 311.696,319.835 311.612 C 320.635 311.528,319.883 311.461,318.164 311.462 C 316.445 311.463,315.791 311.532,316.710 311.615 M322.759 311.608 C 323.353 311.698,324.232 311.696,324.712 311.603 C 325.193 311.510,324.707 311.437,323.633 311.440 C 322.559 311.443,322.166 311.519,322.759 311.608 M327.056 311.608 C 327.650 311.698,328.529 311.696,329.009 311.603 C 329.490 311.510,329.004 311.437,327.930 311.440 C 326.855 311.443,326.462 311.519,327.056 311.608 M333.697 311.608 C 334.291 311.698,335.169 311.696,335.650 311.603 C 336.130 311.510,335.645 311.437,334.570 311.440 C 333.496 311.443,333.103 311.519,333.697 311.608 M337.994 311.608 C 338.587 311.698,339.466 311.696,339.947 311.603 C 340.427 311.510,339.941 311.437,338.867 311.440 C 337.793 311.443,337.400 311.519,337.994 311.608 M342.681 311.608 C 343.275 311.698,344.154 311.696,344.634 311.603 C 345.115 311.510,344.629 311.437,343.555 311.440 C 342.480 311.443,342.087 311.519,342.681 311.608 M346.978 311.608 C 347.572 311.698,348.451 311.696,348.931 311.603 C 349.412 311.510,348.926 311.437,347.852 311.440 C 346.777 311.443,346.384 311.519,346.978 311.608 M351.275 311.608 C 351.869 311.698,352.748 311.696,353.228 311.603 C 353.708 311.510,353.223 311.437,352.148 311.440 C 351.074 311.443,350.681 311.519,351.275 311.608 M355.962 311.608 C 356.556 311.698,357.435 311.696,357.916 311.603 C 358.396 311.510,357.910 311.437,356.836 311.440 C 355.762 311.443,355.369 311.519,355.962 311.608 M360.259 311.608 C 360.853 311.698,361.732 311.696,362.212 311.603 C 362.693 311.510,362.207 311.437,361.133 311.440 C 360.059 311.443,359.666 311.519,360.259 311.608 M364.556 311.608 C 365.150 311.698,366.029 311.696,366.509 311.603 C 366.990 311.510,366.504 311.437,365.430 311.440 C 364.355 311.443,363.962 311.519,364.556 311.608 M371.582 311.608 C 372.173 311.697,373.140 311.697,373.730 311.608 C 374.321 311.518,373.838 311.445,372.656 311.445 C 371.475 311.445,370.991 311.518,371.582 311.608 M316.704 353.011 C 317.190 353.104,317.893 353.101,318.266 353.003 C 318.640 352.905,318.242 352.829,317.383 352.833 C 316.523 352.837,316.218 352.917,316.704 353.011 " stroke="none" fill="#ef9422" fill-rule="evenodd"></path></g></svg>