<svg id="svg" version="1.1" xmlns="http://www.w3.org/2000/svg" xmlns:xlink="http://www.w3.org/1999/xlink" width="400" height="400" viewBox="0, 0, 400,400"><g id="svgg"><path id="path0" d="M87.800 129.644 C 81.756 130.060,80.400 130.303,80.400 130.967 C 80.400 131.367,81.700 131.564,85.700 131.769 C 94.443 132.216,102.892 133.112,112.356 134.596 C 123.439 136.333,123.004 136.337,132.330 134.415 C 146.361 131.521,144.830 131.059,116.441 129.615 C 107.179 129.144,94.885 129.156,87.800 129.644 M175.047 142.011 C 165.475 143.620,165.400 143.880,173.800 146.377 C 185.311 149.798,192.236 152.673,202.092 158.122 C 213.855 164.626,216.427 165.599,215.774 163.300 C 215.602 162.695,215.437 160.490,215.406 158.400 C 215.362 155.444,215.134 154.026,214.375 152.015 L 213.400 149.430 207.726 147.113 C 192.900 141.060,186.579 140.073,175.047 142.011 M216.214 149.578 C 215.902 150.082,223.236 153.626,250.600 166.197 C 254.560 168.017,261.400 171.204,265.800 173.281 L 273.800 177.058 280.000 177.544 C 283.410 177.811,287.910 178.195,290.000 178.399 C 292.090 178.602,295.870 178.959,298.400 179.193 C 311.418 180.396,317.782 181.028,326.695 182.002 C 333.300 182.725,340.306 183.035,338.800 182.539 C 338.470 182.430,337.840 182.183,337.400 181.989 C 336.681 181.672,329.648 179.842,309.000 174.599 C 305.260 173.649,300.805 172.496,299.100 172.036 C 297.395 171.576,294.605 170.831,292.900 170.379 C 291.195 169.928,288.630 169.230,287.200 168.828 C 285.770 168.426,283.070 167.690,281.200 167.193 C 279.330 166.696,273.120 164.945,267.400 163.301 C 261.680 161.657,256.010 160.045,254.800 159.718 C 253.590 159.391,250.170 158.416,247.200 157.553 C 224.101 150.834,216.626 148.911,216.214 149.578 M290.492 202.200 C 286.682 203.262,285.220 204.326,282.838 207.766 C 280.278 211.465,280.232 211.385,289.790 219.805 C 297.619 226.702,308.131 237.473,314.380 245.001 C 325.698 258.636,325.089 257.978,325.767 257.300 C 325.932 257.135,327.646 257.062,329.576 257.138 C 332.610 257.257,333.121 257.182,333.351 256.585 C 333.567 256.022,333.937 255.937,335.344 256.130 C 336.295 256.261,337.236 256.209,337.436 256.017 C 338.207 255.274,341.416 255.097,341.972 255.766 C 342.629 256.558,343.089 256.558,344.600 255.766 C 345.477 255.307,346.360 255.207,347.876 255.395 L 349.952 255.652 349.124 253.926 C 348.410 252.437,346.039 248.766,344.528 246.811 C 344.269 246.475,342.451 244.040,340.488 241.400 C 330.495 227.959,317.622 215.544,304.747 206.936 C 297.432 202.044,294.519 201.076,290.492 202.200 M324.437 258.941 L 323.578 259.800 161.789 259.759 L 0.000 259.717 0.000 329.859 L 0.000 400.000 200.000 400.000 L 400.000 400.000 400.000 330.000 L 400.000 260.000 377.900 259.982 C 359.354 259.968,355.543 259.869,354.200 259.370 C 352.639 258.789,347.156 258.430,340.000 258.438 C 338.130 258.440,336.150 258.421,335.600 258.395 C 327.072 257.994,325.297 258.081,324.437 258.941 M295.929 279.610 C 303.910 280.432,305.519 281.772,308.413 289.998 C 310.823 296.849,310.667 296.625,313.254 296.932 C 315.874 297.242,317.080 298.051,318.025 300.131 C 319.834 304.116,319.141 304.800,313.295 304.800 C 291.683 304.800,287.239 306.507,283.237 316.346 C 280.885 322.127,280.624 322.427,277.277 323.200 C 274.906 323.748,273.092 325.069,272.130 326.948 C 271.214 328.736,271.053 328.787,266.349 328.794 C 261.520 328.801,261.415 328.859,260.981 331.775 C 260.490 335.071,259.633 335.600,254.787 335.600 C 250.846 335.600,250.708 335.569,249.569 334.431 L 248.400 333.262 248.400 322.473 C 248.400 312.705,248.478 311.431,249.225 309.013 C 250.182 305.916,249.909 305.200,247.774 305.200 C 242.870 305.200,245.781 297.566,250.914 296.965 C 253.654 296.644,253.429 296.966,255.843 289.917 C 258.983 280.750,260.220 280.055,275.200 279.038 C 278.740 278.797,291.444 279.148,295.929 279.610 M273.000 283.460 C 266.870 284.128,263.529 285.175,262.341 286.800 C 261.467 287.997,258.313 298.596,258.482 299.773 C 258.611 300.680,304.188 301.308,305.580 300.422 C 306.989 299.527,302.465 286.468,300.371 285.385 C 297.429 283.864,280.330 282.661,273.000 283.460 M97.765 298.788 C 98.742 299.764,99.129 303.153,99.172 311.092 C 99.206 317.550,96.527 316.773,119.200 316.899 C 148.209 317.060,146.519 315.115,146.708 348.561 C 146.799 364.622,146.709 371.451,146.401 371.759 C 145.623 372.537,124.721 372.104,124.100 371.297 C 123.722 370.806,123.600 367.305,123.600 357.004 C 123.600 346.925,123.475 343.235,123.120 342.880 C 122.435 342.195,100.365 342.195,99.680 342.880 C 99.344 343.216,99.198 345.460,99.194 350.380 C 99.187 359.136,98.359 360.982,94.789 360.198 C 93.695 359.957,77.649 346.860,63.378 334.559 C 54.052 326.521,52.648 328.733,80.400 307.732 C 95.440 296.351,95.366 296.389,97.765 298.788 M258.520 309.610 C 256.428 310.673,254.983 313.307,255.327 315.430 C 255.979 319.442,260.532 321.658,263.904 319.602 C 270.222 315.750,265.111 306.263,258.520 309.610 M330.345 311.584 C 336.340 312.640,337.971 314.293,340.568 321.948 C 342.682 328.178,343.157 328.800,345.800 328.800 C 350.660 328.800,352.887 336.139,348.279 336.970 C 346.359 337.316,346.118 337.967,346.941 340.578 C 347.667 342.882,347.833 354.884,347.234 361.726 C 346.809 366.589,346.417 366.955,341.433 367.137 C 336.364 367.323,334.800 366.206,334.800 362.403 C 334.800 360.481,334.398 360.449,313.361 360.691 C 292.420 360.932,293.217 360.837,293.206 363.081 C 293.185 367.429,285.555 369.692,281.906 366.433 L 280.600 365.267 280.470 354.859 C 280.360 346.000,280.443 344.075,281.026 341.925 C 282.123 337.885,282.061 337.519,280.199 337.025 C 277.935 336.424,277.599 336.119,277.609 334.676 C 277.631 331.422,279.858 328.800,282.600 328.800 C 285.234 328.800,285.708 328.180,287.849 321.933 C 290.690 313.640,292.604 312.093,301.056 311.251 C 306.060 310.753,326.976 310.990,330.345 311.584 M300.858 315.842 C 294.649 316.883,294.514 317.026,292.034 325.239 C 290.103 331.633,290.082 331.899,291.467 332.426 C 293.118 333.053,337.011 332.749,337.655 332.106 C 338.962 330.798,334.421 318.081,332.285 317.067 C 328.446 315.246,308.949 314.485,300.858 315.842 M291.400 341.008 C 285.257 343.135,286.643 351.993,293.120 351.999 C 296.534 352.001,298.797 349.770,298.797 346.400 C 298.797 342.367,295.151 339.709,291.400 341.008 M333.341 340.833 C 330.235 341.743,328.591 345.508,329.954 348.590 C 332.435 354.198,340.788 352.547,340.797 346.447 C 340.803 342.535,337.085 339.736,333.341 340.833 " stroke="none" fill="#dfdedd" fill-rule="evenodd"></path><path id="path1" d="M153.800 121.246 C 145.863 121.524,133.045 122.334,123.400 123.166 C 121.683 123.314,125.783 123.531,134.000 123.728 C 149.883 124.107,165.680 125.110,175.900 126.388 C 177.715 126.614,180.595 126.971,182.300 127.179 C 254.484 136.008,334.111 168.028,393.111 211.953 C 396.692 214.619,399.707 216.800,399.811 216.800 C 399.915 216.800,400.000 201.162,400.000 182.049 L 400.000 147.297 398.300 146.846 C 323.956 127.125,239.178 118.248,153.800 121.246 M23.000 137.577 C 18.380 138.642,11.360 140.314,7.400 141.293 L 0.200 143.073 0.099 201.293 C 0.015 249.220,0.091 259.549,0.525 259.716 C 2.143 260.337,228.001 259.463,227.460 258.838 C 227.156 258.487,225.418 255.265,223.597 251.677 C 203.041 211.171,164.359 172.037,127.400 154.354 C 100.845 141.650,76.612 136.022,47.400 135.776 L 31.400 135.641 23.000 137.577 M350.006 255.545 C 350.001 255.963,349.587 256.029,348.235 255.826 C 346.860 255.620,346.131 255.743,344.941 256.381 C 343.036 257.402,342.706 257.401,341.779 256.377 C 340.955 255.467,339.527 255.588,338.325 256.670 C 337.762 257.178,337.410 257.199,336.200 256.800 C 334.413 256.210,332.280 257.442,333.991 258.075 C 335.252 258.542,339.600 257.992,339.600 257.367 C 339.600 256.441,340.361 256.345,341.077 257.181 C 341.786 258.010,342.627 258.231,346.200 258.528 C 348.043 258.681,348.111 258.656,347.075 258.217 C 346.189 257.841,346.062 257.647,346.475 257.307 C 347.127 256.770,349.640 256.530,350.306 256.942 C 350.900 257.309,350.959 256.465,350.400 255.600 C 350.099 255.133,350.011 255.121,350.006 255.545 M327.100 257.882 C 327.595 257.978,328.405 257.978,328.900 257.882 C 329.395 257.787,328.990 257.709,328.000 257.709 C 327.010 257.709,326.605 257.787,327.100 257.882 M349.600 258.400 C 348.808 258.654,348.767 258.720,349.400 258.720 C 349.840 258.720,350.650 258.576,351.200 258.400 C 351.992 258.146,352.033 258.080,351.400 258.080 C 350.960 258.080,350.150 258.224,349.600 258.400 M366.700 259.899 C 370.935 259.964,377.865 259.964,382.100 259.899 C 386.335 259.835,382.870 259.782,374.400 259.782 C 365.930 259.782,362.465 259.835,366.700 259.899 M391.107 259.890 C 391.826 259.979,392.906 259.977,393.507 259.886 C 394.108 259.795,393.520 259.722,392.200 259.724 C 390.880 259.726,390.388 259.801,391.107 259.890 " stroke="none" fill="#52be23" fill-rule="evenodd"></path><path id="path2" d="M118.200 123.492 C 87.453 124.669,64.337 127.657,40.600 133.522 L 33.000 135.400 48.000 135.643 C 76.819 136.109,101.346 141.889,127.400 154.354 C 164.359 172.037,203.041 211.171,223.597 251.677 C 225.418 255.265,227.181 258.515,227.516 258.900 C 228.292 259.793,323.430 260.010,324.320 259.120 C 325.034 258.406,324.913 257.926,323.686 256.600 C 323.075 255.940,320.702 253.060,318.413 250.200 C 308.598 237.939,298.369 227.217,288.000 218.319 C 285.030 215.770,282.167 213.095,281.637 212.374 L 280.674 211.062 281.617 209.286 C 285.191 202.549,291.765 199.983,298.021 202.884 C 307.816 207.427,323.294 220.480,334.452 233.610 C 343.328 244.056,353.372 258.837,350.306 256.942 C 349.570 256.487,347.081 256.783,346.443 257.402 C 345.726 258.098,348.095 258.621,350.186 258.229 C 351.176 258.043,352.010 258.193,353.108 258.753 C 354.462 259.444,385.953 260.051,398.900 259.635 L 400.000 259.600 399.987 238.300 L 399.975 217.000 393.492 212.200 C 344.892 176.218,282.340 147.694,222.800 134.362 C 206.211 130.648,187.967 127.620,172.600 126.032 C 163.602 125.102,159.827 124.796,152.200 124.381 C 143.462 123.906,122.032 123.345,118.200 123.492 M119.200 129.595 C 122.390 129.808,128.060 130.172,131.800 130.405 C 140.236 130.929,141.200 131.075,141.200 131.828 C 141.200 132.671,140.314 132.931,131.156 134.769 L 122.967 136.412 114.184 135.013 C 103.131 133.252,96.803 132.512,90.200 132.210 C 81.909 131.830,80.000 131.603,80.000 131.000 C 80.000 129.454,104.127 128.589,119.200 129.595 M192.200 141.965 C 197.794 143.344,202.728 144.926,207.870 146.988 C 210.968 148.230,211.678 148.387,212.421 147.989 C 213.131 147.609,213.890 147.681,216.351 148.362 C 218.028 148.826,222.730 150.115,226.800 151.226 C 230.870 152.337,239.150 154.609,245.200 156.276 C 251.250 157.942,257.370 159.623,258.800 160.010 C 264.345 161.513,285.878 167.391,295.400 170.002 C 300.900 171.510,313.748 175.014,323.950 177.788 C 346.684 183.969,347.690 184.353,342.891 185.015 C 340.370 185.362,321.390 188.559,315.600 189.611 C 313.070 190.070,310.055 190.616,308.900 190.823 C 307.745 191.030,305.855 191.372,304.700 191.583 C 303.545 191.793,300.530 192.323,298.000 192.761 C 295.470 193.199,291.497 193.893,289.170 194.302 C 283.934 195.224,284.448 195.447,281.746 191.068 C 280.501 189.051,278.829 186.410,278.030 185.200 C 277.232 183.990,276.319 182.489,276.002 181.864 L 275.426 180.727 274.952 181.864 C 274.691 182.489,274.259 183.810,273.993 184.800 C 273.726 185.790,273.370 187.050,273.202 187.600 C 273.034 188.150,272.490 189.950,271.993 191.600 C 271.496 193.250,270.778 195.590,270.398 196.800 C 270.018 198.010,269.472 199.810,269.184 200.800 C 268.896 201.790,268.512 202.771,268.330 202.980 C 268.149 203.189,268.000 203.697,268.000 204.108 C 268.000 204.520,266.938 208.039,265.640 211.928 C 263.230 219.146,260.111 228.948,258.169 235.400 C 256.673 240.374,254.848 244.393,254.199 244.144 C 253.913 244.034,251.652 239.232,249.175 233.472 C 246.697 227.713,243.189 219.580,241.378 215.400 C 239.567 211.220,234.366 199.160,229.821 188.600 C 225.275 178.040,221.128 168.746,220.603 167.946 C 220.079 167.147,219.109 165.299,218.447 163.840 C 216.471 159.481,215.103 158.744,215.861 162.447 C 216.541 165.766,214.717 165.301,204.487 159.550 C 192.451 152.784,185.059 149.680,172.200 145.994 C 165.030 143.939,165.280 143.615,175.446 141.798 C 184.108 140.250,185.298 140.262,192.200 141.965 M339.839 256.694 C 339.260 257.273,339.677 258.000,340.587 258.000 C 341.277 258.000,341.509 257.828,341.357 257.431 C 341.107 256.781,340.195 256.338,339.839 256.694 M275.200 279.038 C 260.220 280.055,258.983 280.750,255.843 289.917 C 253.429 296.966,253.654 296.644,250.914 296.965 C 245.781 297.566,242.870 305.200,247.774 305.200 C 249.909 305.200,250.182 305.916,249.225 309.013 C 248.478 311.431,248.400 312.705,248.400 322.473 L 248.400 333.262 249.569 334.431 C 250.708 335.569,250.846 335.600,254.787 335.600 C 259.633 335.600,260.490 335.071,260.981 331.775 C 261.415 328.859,261.520 328.801,266.349 328.794 C 271.053 328.787,271.214 328.736,272.130 326.948 C 273.092 325.069,274.906 323.748,277.277 323.200 C 280.624 322.427,280.885 322.127,283.237 316.346 C 287.239 306.507,291.683 304.800,313.295 304.800 C 319.141 304.800,319.834 304.116,318.025 300.131 C 317.080 298.051,315.874 297.242,313.254 296.932 C 310.667 296.625,310.823 296.849,308.413 289.998 C 305.519 281.772,303.910 280.432,295.929 279.610 C 291.444 279.148,278.740 278.797,275.200 279.038 M295.875 284.138 C 301.806 285.253,302.140 285.651,304.618 294.527 C 305.928 299.220,306.073 300.109,305.580 300.422 C 304.188 301.308,258.611 300.680,258.482 299.773 C 258.313 298.596,261.467 287.997,262.341 286.800 C 263.529 285.175,266.870 284.128,273.000 283.460 C 276.662 283.061,292.672 283.535,295.875 284.138 M92.600 298.622 C 90.771 299.867,72.683 313.531,63.930 320.280 C 55.211 327.003,55.192 327.503,63.378 334.559 C 77.649 346.860,93.695 359.957,94.789 360.198 C 98.359 360.982,99.187 359.136,99.194 350.380 C 99.198 345.460,99.344 343.216,99.680 342.880 C 100.365 342.195,122.435 342.195,123.120 342.880 C 123.475 343.235,123.600 346.925,123.600 357.004 C 123.600 367.305,123.722 370.806,124.100 371.297 C 124.721 372.104,145.623 372.537,146.401 371.759 C 146.709 371.451,146.799 364.622,146.708 348.561 C 146.519 315.115,148.209 317.060,119.200 316.899 C 96.527 316.773,99.206 317.550,99.172 311.092 C 99.129 303.153,98.742 299.764,97.765 298.788 C 96.402 297.424,94.452 297.361,92.600 298.622 M264.234 309.786 C 266.692 311.396,267.520 315.014,266.002 317.504 C 262.208 323.726,252.802 318.806,255.972 312.258 C 257.492 309.119,261.422 307.943,264.234 309.786 M301.056 311.251 C 292.604 312.093,290.690 313.640,287.849 321.933 C 285.708 328.180,285.234 328.800,282.600 328.800 C 279.858 328.800,277.631 331.422,277.609 334.676 C 277.599 336.119,277.935 336.424,280.199 337.025 C 282.061 337.519,282.123 337.885,281.026 341.925 C 280.443 344.075,280.360 346.000,280.470 354.859 L 280.600 365.267 281.906 366.433 C 285.555 369.692,293.185 367.429,293.206 363.081 C 293.217 360.837,292.420 360.932,313.361 360.691 C 334.398 360.449,334.800 360.481,334.800 362.403 C 334.800 366.206,336.364 367.323,341.433 367.137 C 346.417 366.955,346.809 366.589,347.234 361.726 C 347.833 354.884,347.667 342.882,346.941 340.578 C 346.118 337.967,346.359 337.316,348.279 336.970 C 352.887 336.139,350.660 328.800,345.800 328.800 C 343.157 328.800,342.682 328.178,340.568 321.948 C 337.128 311.809,335.857 311.233,316.400 310.997 C 310.130 310.921,303.225 311.035,301.056 311.251 M327.165 315.814 C 333.875 316.902,334.117 317.165,336.612 326.106 C 337.832 330.475,338.047 331.713,337.655 332.106 C 337.011 332.749,293.118 333.053,291.467 332.426 C 290.082 331.899,290.103 331.633,292.034 325.239 C 294.514 317.026,294.649 316.883,300.858 315.842 C 305.689 315.032,322.235 315.014,327.165 315.814 M296.118 341.476 C 299.705 343.283,299.655 349.510,296.038 351.381 C 290.448 354.271,284.736 347.562,288.743 342.814 C 290.614 340.597,293.379 340.095,296.118 341.476 M338.061 341.438 C 339.624 342.237,340.800 344.390,340.797 346.447 C 340.788 352.547,332.435 354.198,329.954 348.590 C 327.677 343.441,332.922 338.813,338.061 341.438 " stroke="none" fill="#404044" fill-rule="evenodd"></path><path id="path3" d="M0.000 71.558 L 0.000 143.116 1.300 142.805 C 2.015 142.634,5.660 141.740,9.400 140.818 C 13.140 139.896,19.440 138.425,23.400 137.550 C 27.360 136.675,34.110 135.084,38.400 134.015 C 60.721 128.454,83.967 125.108,108.040 123.992 C 113.188 123.753,119.650 123.388,122.400 123.182 C 148.181 121.244,160.310 120.800,187.503 120.800 C 262.607 120.800,336.090 129.916,399.100 147.049 L 400.000 147.293 400.000 73.647 L 400.000 0.000 200.000 0.000 L 0.000 0.000 0.000 71.558 " stroke="none" fill="#0dc0fa" fill-rule="evenodd"></path><path id="path4" d="M112.305 129.483 C 112.802 129.579,113.522 129.575,113.905 129.475 C 114.287 129.375,113.880 129.296,113.000 129.301 C 112.120 129.305,111.807 129.387,112.305 129.483 M84.100 131.876 C 84.485 131.976,85.115 131.976,85.500 131.876 C 85.885 131.775,85.570 131.693,84.800 131.693 C 84.030 131.693,83.715 131.775,84.100 131.876 M183.700 140.676 C 184.085 140.776,184.715 140.776,185.100 140.676 C 185.485 140.575,185.170 140.493,184.400 140.493 C 183.630 140.493,183.315 140.575,183.700 140.676 M212.083 148.096 L 211.165 148.538 212.361 149.040 C 213.868 149.674,215.778 155.171,215.539 158.182 C 215.459 159.182,215.543 160.000,215.726 160.000 C 216.389 160.000,217.270 161.243,218.447 163.840 C 219.109 165.299,220.079 167.147,220.603 167.946 C 221.128 168.746,225.275 178.040,229.821 188.600 C 234.366 199.160,239.567 211.220,241.378 215.400 C 243.189 219.580,246.697 227.713,249.175 233.472 C 251.652 239.232,253.913 244.034,254.199 244.144 C 254.848 244.393,256.673 240.374,258.169 235.400 C 260.111 228.948,263.230 219.146,265.640 211.928 C 266.938 208.039,268.000 204.520,268.000 204.108 C 268.000 203.697,268.149 203.189,268.330 202.980 C 268.512 202.771,268.896 201.790,269.184 200.800 C 269.472 199.810,270.018 198.010,270.398 196.800 C 270.778 195.590,271.496 193.250,271.993 191.600 C 272.490 189.950,273.034 188.150,273.202 187.600 C 273.370 187.050,273.726 185.790,273.993 184.800 C 274.259 183.810,274.691 182.489,274.952 181.864 L 275.426 180.727 276.002 181.864 C 276.319 182.489,277.232 183.990,278.030 185.200 C 278.829 186.410,280.501 189.051,281.746 191.068 C 284.448 195.447,283.934 195.224,289.170 194.302 C 291.497 193.893,295.470 193.199,298.000 192.761 C 300.530 192.323,303.545 191.793,304.700 191.583 C 305.855 191.372,307.745 191.030,308.900 190.823 C 310.055 190.616,313.070 190.070,315.600 189.611 C 321.390 188.559,340.370 185.362,342.891 185.015 C 347.690 184.353,346.684 183.969,323.950 177.788 C 313.748 175.014,300.900 171.510,295.400 170.002 C 285.878 167.391,264.345 161.513,258.800 160.010 C 257.370 159.623,251.250 157.942,245.200 156.276 C 239.150 154.609,230.870 152.338,226.800 151.229 C 222.730 150.119,218.111 148.849,216.535 148.406 C 213.290 147.493,213.328 147.496,212.083 148.096 M230.600 152.833 C 236.760 154.565,244.230 156.689,247.200 157.553 C 250.170 158.416,253.590 159.391,254.800 159.718 C 256.010 160.045,261.680 161.657,267.400 163.301 C 273.120 164.945,279.330 166.696,281.200 167.193 C 283.070 167.690,285.770 168.426,287.200 168.828 C 288.630 169.230,291.195 169.928,292.900 170.379 C 294.605 170.831,297.395 171.576,299.100 172.036 C 300.805 172.496,305.260 173.649,309.000 174.599 C 329.648 179.842,336.681 181.672,337.400 181.989 C 337.840 182.183,338.470 182.430,338.800 182.539 C 340.306 183.035,333.300 182.725,326.695 182.002 C 317.782 181.028,311.418 180.396,298.400 179.193 C 295.870 178.959,292.090 178.602,290.000 178.399 C 287.910 178.195,283.410 177.811,280.000 177.544 L 273.800 177.058 265.800 173.281 C 261.400 171.204,254.560 168.017,250.600 166.197 C 223.236 153.626,215.902 150.082,216.214 149.578 C 216.581 148.983,218.243 149.359,230.600 152.833 M324.783 223.300 C 326.441 225.066,326.800 225.384,326.800 225.083 C 326.800 225.019,325.945 224.164,324.900 223.183 L 323.000 221.400 324.783 223.300 M338.800 255.488 C 338.250 255.587,337.636 255.825,337.436 256.017 C 337.236 256.210,336.295 256.261,335.344 256.130 C 333.937 255.937,333.567 256.022,333.351 256.585 C 333.123 257.177,332.595 257.261,329.643 257.172 C 326.278 257.071,324.800 257.334,324.800 258.033 C 324.800 258.224,325.292 258.193,325.893 257.965 C 326.550 257.715,328.153 257.659,329.915 257.824 C 332.597 258.075,332.924 258.023,333.792 257.208 C 334.649 256.402,334.877 256.364,336.195 256.798 C 337.411 257.200,337.761 257.178,338.325 256.670 C 339.527 255.588,340.955 255.467,341.779 256.377 C 342.706 257.401,343.036 257.402,344.941 256.381 C 346.083 255.768,346.940 255.611,348.335 255.758 L 350.200 255.954 348.117 255.524 C 346.386 255.166,345.800 255.204,344.656 255.747 C 342.959 256.552,342.630 256.559,342.000 255.800 C 341.509 255.209,340.764 255.136,338.800 255.488 M339.700 258.287 C 340.305 258.378,341.295 258.378,341.900 258.287 C 342.505 258.195,342.010 258.120,340.800 258.120 C 339.590 258.120,339.095 258.195,339.700 258.287 M229.891 259.889 C 230.601 259.977,231.861 259.979,232.691 259.892 C 233.521 259.805,232.940 259.733,231.400 259.731 C 229.860 259.729,229.181 259.800,229.891 259.889 M237.712 259.895 C 238.764 259.977,240.384 259.976,241.312 259.892 C 242.240 259.808,241.380 259.741,239.400 259.742 C 237.420 259.743,236.660 259.812,237.712 259.895 M255.300 259.900 C 260.305 259.963,268.495 259.963,273.500 259.900 C 278.505 259.836,274.410 259.784,264.400 259.784 C 254.390 259.784,250.295 259.836,255.300 259.900 M294.928 259.900 C 300.168 259.963,308.628 259.963,313.728 259.900 C 318.827 259.836,314.540 259.785,304.200 259.785 C 293.860 259.785,289.687 259.837,294.928 259.900 " stroke="none" fill="#f2942e" fill-rule="evenodd"></path></g></svg>