<?xml version="1.0" standalone="no"?>
<!DOCTYPE svg PUBLIC "-//W3C//DTD SVG 20010904//EN"
 "http://www.w3.org/TR/2001/REC-SVG-20010904/DTD/svg10.dtd">
<svg version="1.0" xmlns="http://www.w3.org/2000/svg"
 width="1024.000000pt" height="1024.000000pt" viewBox="0 0 1024.000000 1024.000000"
 preserveAspectRatio="xMidYMid meet">

<g transform="translate(0.000000,1024.000000) scale(0.100000,-0.100000)"
fill="#000000" stroke="none">
<path d="M9847 8989 c4 -13 8 -18 11 -10 2 7 -1 18 -6 23 -8 8 -9 4 -5 -13z"/>
<path d="M9935 8990 c3 -5 8 -10 11 -10 2 0 4 5 4 10 0 6 -5 10 -11 10 -5 0
-7 -4 -4 -10z"/>
<path d="M9965 8990 c3 -5 8 -10 11 -10 2 0 4 5 4 10 0 6 -5 10 -11 10 -5 0
-7 -4 -4 -10z"/>
<path d="M9908 8973 c6 -2 9 -10 6 -15 -4 -7 -2 -8 5 -4 13 9 5 26 -12 25 -9
0 -8 -2 1 -6z"/>
<path d="M9948 8883 c7 -3 16 -2 19 1 4 3 -2 6 -13 5 -11 0 -14 -3 -6 -6z"/>
<path d="M9910 8782 c0 -4 10 -9 22 -9 18 -2 20 0 8 7 -18 12 -30 13 -30 2z"/>
<path d="M10029 8742 c-11 -14 -11 -15 0 -5 7 6 20 9 27 6 8 -3 14 -3 14 0 0
14 -30 14 -41 -1z"/>
<path d="M10020 8709 c-19 -11 -26 -17 -15 -13 11 3 25 7 32 7 7 0 14 6 17 14
7 16 8 16 -34 -8z"/>
<path d="M10065 8660 c-16 -7 -17 -9 -3 -9 9 -1 20 4 23 9 7 11 7 11 -20 0z"/>
<path d="M10024 8642 c0 -10 5 -19 12 -19 6 0 9 9 6 19 -2 10 -7 18 -11 18 -4
0 -7 -8 -7 -18z"/>
<path d="M9860 8646 c0 -2 7 -7 16 -10 8 -3 12 -2 9 4 -6 10 -25 14 -25 6z"/>
<path d="M10100 8630 c-8 -5 -11 -12 -7 -16 4 -4 -1 -16 -10 -27 -10 -11 -13
-17 -6 -14 6 4 13 4 16 0 2 -5 2 -2 1 4 -2 7 5 17 14 22 12 7 13 10 3 11 -11
0 -11 3 -1 15 14 17 11 19 -10 5z"/>
<path d="M10060 8615 c-7 -9 -11 -17 -9 -20 3 -2 10 5 17 15 14 24 10 26 -8 5z"/>
<path d="M9900 8606 c6 -6 18 -5 32 1 21 10 21 10 -9 9 -19 -1 -28 -5 -23 -10z"/>
<path d="M10130 8589 c0 -5 -6 -7 -12 -3 -7 4 -9 3 -5 -1 13 -15 36 -14 30 1
-6 17 -13 18 -13 3z"/>
<path d="M10013 8575 c-3 -9 -3 -18 -1 -21 3 -3 8 4 11 16 6 23 -1 27 -10 5z"/>
<path d="M10086 8537 c3 -10 9 -15 12 -12 3 3 0 11 -7 18 -10 9 -11 8 -5 -6z"/>
<path d="M9880 8486 c7 -7 13 -7 20 0 6 6 3 10 -10 10 -13 0 -16 -4 -10 -10z"/>
<path d="M10020 8490 c-8 -5 -10 -10 -5 -10 6 0 17 5 25 10 8 5 11 10 5 10 -5
0 -17 -5 -25 -10z"/>
<path d="M10091 8490 c0 -8 4 -22 9 -30 8 -13 10 -12 10 3 0 11 4 15 12 11 7
-4 8 -3 4 5 -4 6 -11 9 -16 6 -4 -3 -11 1 -13 7 -4 9 -6 8 -6 -2z"/>
<path d="M9915 8460 c-3 -6 1 -7 9 -4 18 7 21 14 7 14 -6 0 -13 -4 -16 -10z"/>
<path d="M9975 8460 c-3 -6 1 -7 9 -4 18 7 21 14 7 14 -6 0 -13 -4 -16 -10z"/>
<path d="M10010 8446 c0 -2 7 -7 16 -10 8 -3 12 -2 9 4 -6 10 -25 14 -25 6z"/>
<path d="M10146 8427 c3 -10 9 -15 12 -12 3 3 0 11 -7 18 -10 9 -11 8 -5 -6z"/>
<path d="M9945 8410 c3 -5 8 -10 11 -10 2 0 4 5 4 10 0 6 -5 10 -11 10 -5 0
-7 -4 -4 -10z"/>
<path d="M10053 8395 c0 -8 4 -12 9 -9 5 3 6 10 3 15 -9 13 -12 11 -12 -6z"/>
<path d="M10087 8395 c-4 -8 -3 -16 1 -19 4 -3 9 4 9 15 2 23 -3 25 -10 4z"/>
<path d="M10126 8401 c-4 -5 -2 -12 3 -15 5 -4 12 -2 15 3 4 5 2 12 -3 15 -5
4 -12 2 -15 -3z"/>
<path d="M10170 8376 c14 -18 13 -19 -2 -13 -19 7 -22 0 -19 -40 1 -11 -3 -24
-8 -28 -6 -3 -11 -12 -11 -18 0 -7 5 -4 11 6 6 9 14 15 20 12 5 -4 6 2 2 11
-4 12 -3 15 5 10 16 -9 15 7 0 22 -7 7 -8 12 -2 12 6 0 16 -10 21 -22 10 -22
10 -22 10 4 0 15 -9 35 -21 45 -20 18 -20 17 -6 -1z"/>
<path d="M10074 8362 c3 -6 3 -12 -1 -15 -5 -2 -2 -2 6 0 7 2 21 -2 29 -9 12
-10 14 -10 8 -1 -4 7 -16 18 -28 24 -12 7 -18 7 -14 1z"/>
<path d="M10020 8340 c-8 -5 -10 -10 -5 -10 6 0 17 5 25 10 8 5 11 10 5 10 -5
0 -17 -5 -25 -10z"/>
<path d="M9936 8327 c3 -10 9 -15 12 -12 3 3 0 11 -7 18 -10 9 -11 8 -5 -6z"/>
<path d="M10201 8284 c0 -11 3 -14 6 -6 3 7 2 16 -1 19 -3 4 -6 -2 -5 -13z"/>
<path d="M9964 8276 c1 -8 5 -18 8 -22 4 -3 5 1 4 10 -1 8 -5 18 -8 22 -4 3
-5 -1 -4 -10z"/>
<path d="M10073 8260 c2 -8 0 -23 -4 -32 -5 -10 -5 -19 0 -22 12 -8 20 40 9
56 -7 10 -9 10 -5 -2z"/>
<path d="M10098 8263 c7 -3 16 -2 19 1 4 3 -2 6 -13 5 -11 0 -14 -3 -6 -6z"/>
<path d="M10196 8245 c-9 -23 -8 -27 5 -20 6 4 6 -1 -2 -12 -8 -13 -22 -19
-40 -18 -33 2 -34 0 -15 -35 11 -18 11 -30 4 -45 -6 -11 -12 -35 -14 -53 -2
-27 0 -31 11 -22 7 6 19 10 27 9 29 -4 49 2 43 11 -4 7 -11 8 -18 2 -14 -11
-57 2 -57 18 0 5 5 10 10 10 6 0 10 -4 10 -10 0 -15 16 -12 34 6 9 8 21 12 27
8 8 -4 9 -3 5 4 -10 17 -33 15 -40 -4 -3 -8 -10 -12 -16 -9 -18 11 -10 42 14
53 21 9 25 8 29 -6 2 -9 4 10 4 43 1 65 -9 100 -21 70z m-16 -65 c0 -5 7 -7
16 -3 11 4 15 2 13 -6 -3 -7 -8 -12 -12 -12 -4 1 -16 1 -27 1 -13 0 -18 5 -14
15 7 17 24 21 24 5z"/>
<path d="M10109 8228 c-17 -29 -20 -50 -7 -42 5 3 7 8 4 11 -3 3 2 12 10 21
13 12 17 13 24 2 10 -16 43 -5 38 12 -2 6 -11 14 -19 17 -12 4 -12 2 0 -12 17
-22 3 -22 -20 -1 -16 14 -18 14 -30 -8z"/>
<path d="M10030 8220 c-7 -18 -5 -49 3 -41 5 5 7 17 4 27 -3 11 -6 17 -7 14z"/>
<path d="M10057 8183 c-10 -10 -8 -23 4 -23 5 0 8 4 5 9 -4 5 0 12 6 14 7 3 8
6 2 6 -6 1 -14 -2 -17 -6z"/>
<path d="M10077 8149 c-9 -5 -22 -7 -29 -3 -7 4 -8 3 -4 -4 9 -16 18 -15 42 3
22 17 17 19 -9 4z"/>
<path d="M9866 8142 c-3 -5 1 -9 9 -9 8 0 12 4 9 9 -3 4 -7 8 -9 8 -2 0 -6 -4
-9 -8z"/>
<path d="M10117 8134 c19 -8 -6 -53 -27 -49 -9 2 -17 -3 -17 -11 0 -9 4 -11
10 -5 5 5 15 7 21 5 7 -3 18 7 24 21 16 35 15 45 -5 44 -10 0 -13 -3 -6 -5z"/>
<path d="M9935 8120 c-3 -6 1 -7 9 -4 18 7 21 14 7 14 -6 0 -13 -4 -16 -10z"/>
<path d="M10030 8126 c0 -3 9 -10 20 -16 11 -6 20 -8 20 -6 0 3 -9 10 -20 16
-11 6 -20 8 -20 6z"/>
<path d="M9970 8106 c0 -2 8 -10 18 -17 15 -13 16 -12 3 4 -13 16 -21 21 -21
13z"/>
<path d="M10018 8043 c7 -3 16 -2 19 1 4 3 -2 6 -13 5 -11 0 -14 -3 -6 -6z"/>
<path d="M10200 8030 c0 -5 7 -10 16 -10 8 0 12 5 9 10 -3 6 -10 10 -16 10 -5
0 -9 -4 -9 -10z"/>
<path d="M9939 8028 c-1 -2 -3 -13 -4 -25 -2 -15 2 -20 12 -16 12 5 12 7 1 14
-11 7 -10 11 2 19 10 6 11 10 3 10 -7 0 -14 -1 -14 -2z"/>
<path d="M10034 8018 c6 -19 -25 -43 -39 -30 -4 4 -1 -3 6 -16 11 -17 15 -19
17 -7 2 8 9 12 15 9 7 -4 9 -4 5 1 -4 4 -4 13 2 19 5 7 5 17 -2 26 -8 12 -9
12 -4 -2z"/>
<path d="M10183 8018 c3 -10 2 -20 -4 -23 -11 -7 -3 -25 11 -25 5 0 7 7 3 16
-5 14 -3 15 14 6 15 -9 20 -8 20 3 0 8 -5 11 -10 8 -6 -3 -17 3 -25 13 -12 16
-14 16 -9 2z"/>
<path d="M10090 8000 c0 -6 4 -9 9 -5 5 3 12 1 16 -5 3 -5 16 -10 28 -10 17 1
19 2 7 9 -30 17 -60 23 -60 11z"/>
<path d="M9850 7976 c0 -2 8 -10 18 -17 15 -13 16 -12 3 4 -13 16 -21 21 -21
13z"/>
<path d="M10132 7940 c-1 -16 1 -30 5 -30 5 0 8 14 9 30 1 39 -11 39 -14 0z"/>
<path d="M10166 7959 c3 -5 0 -9 -6 -9 -7 0 -9 -7 -6 -16 4 -9 1 -23 -6 -32
-11 -13 -9 -15 20 -9 35 7 62 -8 55 -30 -2 -6 0 -14 5 -17 10 -6 8 36 -3 53
-3 6 -18 11 -33 11 -21 0 -24 2 -12 10 8 5 25 6 38 3 23 -5 23 -4 12 18 -17
33 -24 38 -16 14 5 -16 1 -21 -13 -21 -14 0 -17 4 -10 12 6 8 3 13 -11 17 -11
3 -18 1 -14 -4z"/>
<path d="M10084 7953 c3 -3 1 -12 -4 -18 -8 -9 -4 -11 13 -8 29 6 32 28 4 30
-11 1 -17 -1 -13 -4z"/>
<path d="M10039 7926 c8 -9 8 -16 2 -20 -15 -10 -2 -36 15 -29 8 3 11 10 7 16
-3 6 -1 7 6 3 9 -6 9 -11 -1 -24 -11 -13 -11 -14 1 -8 7 5 16 5 20 0 3 -5 18
-15 33 -21 23 -10 26 -10 21 2 -3 9 1 15 11 15 9 0 16 -4 16 -10 0 -5 8 -10
18 -10 14 0 15 -2 2 -9 -8 -6 -17 -8 -21 -5 -4 2 -10 0 -14 -5 -6 -10 27 -7
44 4 5 3 12 1 16 -5 3 -5 2 -10 -4 -10 -12 0 -2 -32 13 -42 7 -5 7 -8 -1 -8
-16 0 -17 -34 -1 -60 7 -10 9 -23 5 -27 -5 -4 -12 -1 -16 6 -5 8 -11 9 -15 3
-3 -5 1 -13 10 -16 24 -9 8 -24 -21 -18 -26 5 -31 -3 -15 -28 8 -13 10 -12 10
3 0 9 5 17 10 17 15 0 12 -16 -6 -34 -21 -22 -34 -20 -29 4 2 11 0 18 -5 15
-15 -10 -31 30 -17 44 9 10 8 11 -6 5 -9 -3 -25 0 -35 7 -15 13 -16 12 -4 -2
11 -15 8 -21 -20 -43 -18 -15 -24 -23 -14 -20 14 6 17 4 11 -6 -6 -9 -4 -11 5
-5 10 6 12 4 7 -9 -4 -9 -3 -15 2 -12 5 3 12 -1 15 -10 9 -24 8 -27 -10 -20
-17 6 -16 -4 1 -47 6 -14 4 -18 -11 -15 -12 2 -19 -4 -21 -17 -3 -19 -2 -19 5
-1 7 17 9 17 24 2 15 -15 17 -15 21 2 4 13 5 12 6 -5 0 -12 -4 -23 -11 -25 -7
-3 -9 -11 -4 -24 7 -16 10 -14 25 20 l17 39 22 -23 c12 -13 19 -27 16 -31 -3
-5 2 -6 10 -3 9 3 16 1 16 -5 0 -6 7 -11 16 -11 8 0 12 -5 9 -10 -4 -6 -11 -8
-16 -5 -5 4 -9 0 -10 -7 0 -7 -4 -4 -9 7 -5 11 -9 14 -9 7 -1 -8 -7 -12 -13
-9 -7 2 -19 -3 -26 -12 -8 -9 -11 -11 -8 -5 3 7 -5 15 -19 18 -14 4 -25 11
-25 17 0 6 -5 7 -10 4 -6 -4 -8 -11 -5 -16 4 -5 -1 -9 -9 -9 -8 0 -17 -4 -20
-9 -7 -10 20 -9 30 2 11 11 36 8 29 -2 -3 -6 2 -14 12 -19 14 -8 15 -13 4 -26
-9 -11 -10 -20 -2 -33 8 -13 10 -14 11 -4 0 11 3 12 11 4 14 -14 1 -36 -17
-29 -11 4 -13 -1 -10 -18 3 -16 -1 -27 -12 -31 -14 -6 -13 -9 8 -18 14 -5 32
-9 40 -8 8 1 2 -7 -15 -18 -16 -12 -24 -21 -17 -21 16 0 15 -17 -2 -23 -18 -7
-15 31 4 43 8 5 13 10 10 11 -36 7 -49 4 -39 -7 8 -10 6 -13 -9 -11 -13 1 -18
7 -14 19 2 10 0 18 -6 18 -5 0 -9 -8 -8 -17 1 -20 -31 -20 -49 -1 -7 8 -6 9 2
4 15 -8 57 31 42 39 -5 4 -7 11 -4 16 10 15 -50 10 -71 -6 -16 -13 -16 -14 -1
-9 13 5 16 2 11 -10 -3 -9 0 -24 7 -33 12 -15 12 -16 -6 -9 -11 4 -16 4 -13 0
4 -3 -2 -14 -14 -24 -24 -19 -32 -47 -13 -47 7 0 10 9 8 21 -4 21 -4 21 13 1
14 -17 16 -17 11 -2 -7 18 8 24 18 7 7 -11 25 -4 25 10 0 5 -7 7 -16 3 -11 -4
-15 -2 -13 6 3 7 8 12 12 12 4 -1 13 -1 21 -1 7 0 16 -9 19 -21 4 -13 10 -18
18 -13 7 4 10 3 5 -4 -3 -6 4 -20 16 -31 12 -12 16 -21 9 -21 -7 0 -9 -5 -6
-11 4 -6 12 -8 19 -6 6 3 17 -7 23 -20 12 -25 12 -25 -8 -7 -19 17 -20 17 -13
-2 7 -16 6 -17 -8 -6 -12 10 -18 10 -23 1 -4 -6 -1 -15 6 -20 10 -6 9 -10 -6
-15 -31 -12 -34 -25 -13 -46 17 -17 18 -22 5 -41 -8 -12 -21 -22 -28 -22 -8 0
-17 -4 -21 -10 -5 -6 -8 -6 -8 1 0 13 35 46 42 39 2 -3 5 2 5 10 0 8 -7 15
-16 16 -9 0 -27 2 -41 5 -19 3 -21 2 -10 -6 8 -5 23 -10 33 -10 10 0 15 -5 12
-10 -4 -6 -14 -9 -23 -8 -11 2 -17 -4 -17 -17 0 -11 -6 -19 -12 -18 -7 2 -13
-2 -13 -7 0 -6 6 -10 13 -9 26 3 38 -2 32 -13 -4 -7 -1 -6 7 2 7 8 20 16 28
18 11 2 10 -1 -3 -12 -10 -8 -19 -18 -20 -22 -1 -5 -11 -7 -22 -6 l-20 4 20
-17 c15 -13 16 -15 3 -11 -23 7 -31 -21 -10 -33 10 -6 12 -11 5 -11 -7 0 -13
-4 -13 -10 0 -5 3 -9 8 -8 4 0 14 -2 22 -5 18 -8 202 -57 213 -57 4 0 7 172 5
383 l-3 382 -28 -3 c-21 -2 -27 0 -21 9 4 7 3 9 -4 5 -6 -3 -13 3 -17 14 -4
11 -11 18 -16 15 -5 -4 -9 -1 -9 4 0 6 5 11 10 11 6 0 10 5 10 11 0 5 -5 7
-12 3 -8 -5 -9 -2 -5 10 4 10 3 15 -3 11 -6 -3 -10 -2 -10 4 0 5 -3 16 -6 24
-9 24 24 28 46 5 25 -27 26 -42 3 -34 -16 6 -16 5 1 -11 13 -13 20 -15 23 -5
9 23 21 12 19 -19 0 -18 5 -34 12 -36 6 -3 12 0 12 7 0 6 -4 8 -10 5 -6 -3
-10 4 -10 17 0 19 2 20 11 8 9 -13 10 -12 5 3 -3 9 -9 24 -13 34 -4 11 -3 14
5 9 7 -4 12 -2 12 3 0 6 -5 11 -11 11 -5 0 -7 5 -4 11 12 18 12 158 0 162 -6
2 -5 10 4 20 10 13 11 24 2 47 -11 34 -35 62 -45 53 -3 -4 -6 -2 -6 3 0 6 5
15 12 22 9 9 9 12 0 12 -7 0 -12 -4 -12 -10 0 -16 -19 -12 -77 15 -29 14 -51
30 -48 35 4 6 -1 10 -11 10 -13 0 -14 -3 -5 -14z m87 -52 c18 -15 18 -15 -2
-5 -12 6 -24 7 -28 4 -3 -3 -6 -1 -6 5 0 16 12 15 36 -4z m-1 -248 c17 -15 23
-26 16 -30 -6 -4 -11 -1 -12 6 0 7 -4 4 -8 -6 -7 -18 -8 -18 -29 4 -16 18 -19
27 -11 37 14 16 11 17 44 -11z m91 -51 c-4 -35 -16 -44 -16 -12 0 21 -4 25
-17 20 -15 -5 -14 -3 2 10 25 19 34 14 31 -18z m-99 -22 c-4 -3 0 -17 8 -29
20 -31 2 -40 -24 -13 -19 21 -19 23 -3 35 18 14 30 19 19 7z m58 -193 c-3 -5
-1 -11 4 -15 6 -3 8 -12 4 -20 -3 -9 0 -22 7 -30 9 -11 9 -15 1 -15 -7 0 -10
-4 -6 -9 3 -5 0 -13 -6 -17 -8 -4 -9 -3 -5 4 4 7 3 12 -3 12 -6 0 -8 12 -5 28
4 19 1 34 -9 44 -12 11 -13 18 -5 26 12 12 31 6 23 -8z m35 0 c0 -5 -5 -10
-11 -10 -5 0 -7 5 -4 10 3 6 8 10 11 10 2 0 4 -4 4 -10z m-77 -35 c-3 -9 -8
-14 -10 -11 -3 3 -2 9 2 15 9 16 15 13 8 -4z m27 -5 c0 -5 -5 -10 -11 -10 -5
0 -7 5 -4 10 3 6 8 10 11 10 2 0 4 -4 4 -10z m10 -86 c0 -3 -4 -2 -10 1 -5 3
-10 -1 -10 -9 0 -9 -4 -16 -10 -16 -5 0 -10 11 -10 25 0 23 2 24 20 15 11 -6
20 -13 20 -16z m-142 4 c10 -14 -2 -31 -26 -35 -13 -3 -15 7 -6 31 7 19 18 20
32 4z m127 -98 c1 -10 -2 -17 -7 -14 -4 3 -8 15 -8 26 0 26 13 15 15 -12z
m-59 2 c1 -7 2 -16 3 -21 0 -6 10 -8 22 -6 16 3 18 1 10 -9 -6 -7 -7 -17 -3
-21 4 -5 -5 0 -20 11 -14 10 -24 21 -22 23 2 2 -1 13 -7 23 -9 16 -8 19 3 16
7 -3 14 -10 14 -16z m4 -172 c0 -5 -4 -10 -10 -10 -5 0 -10 5 -10 10 0 6 5 10
10 10 6 0 10 -4 10 -10z m80 -122 c0 -4 -9 -6 -19 -5 -20 1 -23 17 -6 29 9 6
25 -8 25 -24z m34 -87 c7 -11 -69 -9 -80 2 -4 4 11 7 34 7 22 0 43 -4 46 -9z"/>
<path d="M9938 7913 c-8 -10 -18 -25 -22 -33 -4 -8 0 -6 8 5 9 11 24 26 33 33
9 6 12 12 6 12 -5 0 -17 -8 -25 -17z"/>
<path d="M9996 7878 c3 -5 10 -6 15 -3 13 9 11 12 -6 12 -8 0 -12 -4 -9 -9z"/>
<path d="M9955 7839 c-4 -6 -5 -12 -2 -15 2 -3 7 2 10 11 7 17 1 20 -8 4z"/>
<path d="M10000 7838 c0 -3 6 -11 14 -17 10 -9 17 -7 27 6 12 16 12 17 -2 6
-12 -10 -18 -10 -27 -1 -7 7 -12 9 -12 6z"/>
<path d="M10063 7835 c4 -5 -5 -17 -20 -27 -16 -10 -22 -18 -15 -18 6 0 14 0
17 0 3 0 6 3 7 8 0 4 8 12 16 18 13 9 13 12 1 19 -8 5 -11 4 -6 0z"/>
<path d="M10103 7825 c-9 -10 -7 -14 10 -19 11 -3 23 -3 26 -1 2 3 -1 5 -8 5
-7 0 -10 4 -6 9 9 15 -9 20 -22 6z"/>
<path d="M9987 7787 c4 -6 0 -8 -9 -4 -12 4 -14 1 -11 -14 7 -26 22 -34 36
-20 9 9 8 11 -5 6 -22 -9 -23 3 -3 25 13 14 13 17 0 17 -8 0 -11 -5 -8 -10z"/>
<path d="M10070 7785 c0 -8 2 -15 4 -15 2 0 6 7 10 15 3 8 1 15 -4 15 -6 0
-10 -7 -10 -15z"/>
<path d="M10145 7790 c-3 -5 -13 -7 -23 -4 -14 5 -14 4 -2 -4 8 -6 18 -8 24
-5 5 3 6 1 2 -5 -4 -7 -1 -12 9 -12 12 0 15 5 11 16 -5 12 -2 15 9 10 9 -3 13
-2 10 4 -8 13 -32 13 -40 0z"/>
<path d="M10030 7760 c0 -5 5 -10 11 -10 5 0 7 5 4 10 -3 6 -8 10 -11 10 -2 0
-4 -4 -4 -10z"/>
<path d="M10086 7744 c-9 -24 -7 -29 5 -17 6 6 18 9 26 6 11 -4 11 -8 -3 -18
-14 -9 -14 -14 -4 -20 9 -6 11 -4 5 5 -6 10 -4 12 10 7 14 -6 16 -3 12 13 -3
13 0 20 10 20 10 0 13 -6 8 -17 -5 -15 -4 -16 7 -5 11 11 10 16 -6 28 -23 16
-40 19 -31 4 3 -5 1 -10 -4 -10 -6 0 -11 5 -11 10 0 16 -17 12 -24 -6z"/>
<path d="M9858 7733 c7 -3 16 -2 19 1 4 3 -2 6 -13 5 -11 0 -14 -3 -6 -6z"/>
<path d="M9904 7728 c-4 -7 -3 -10 1 -5 5 4 16 0 25 -8 14 -13 17 -13 17 0 0
8 -4 12 -9 9 -4 -3 -8 0 -8 5 0 15 -17 14 -26 -1z"/>
<path d="M10176 7723 c-3 -10 -9 -24 -12 -32 -4 -8 -2 -12 6 -9 8 2 15 16 17
31 4 31 -2 36 -11 10z"/>
<path d="M9995 7720 c3 -5 -3 -14 -12 -20 -15 -8 -12 -9 12 -4 17 3 26 2 20
-3 -5 -4 -11 -15 -13 -23 -2 -12 1 -11 11 2 8 10 18 14 23 10 4 -4 3 0 -3 8
-6 8 -11 19 -10 24 1 5 -6 10 -16 12 -9 1 -15 -2 -12 -6z"/>
<path d="M9848 7700 c9 -24 25 -28 30 -8 2 9 0 8 -7 -2 -9 -13 -11 -13 -11 2
0 9 -4 20 -10 23 -6 4 -7 -2 -2 -15z"/>
<path d="M9780 7660 c0 -6 7 -10 15 -10 8 0 15 2 15 4 0 2 -7 6 -15 10 -8 3
-15 1 -15 -4z"/>
<path d="M10145 7659 c-11 -17 -2 -18 19 -3 17 12 17 14 4 14 -9 0 -20 -5 -23
-11z"/>
<path d="M9890 7656 c0 -2 8 -10 18 -17 15 -13 16 -12 3 4 -13 16 -21 21 -21
13z"/>
<path d="M9955 7621 c-3 -5 -2 -12 3 -15 5 -3 9 1 9 9 0 17 -3 19 -12 6z"/>
<path d="M9856 7603 c-6 -14 -5 -15 5 -6 7 7 10 15 7 18 -3 3 -9 -2 -12 -12z"/>
<path d="M10020 7600 c0 -5 5 -10 11 -10 5 0 7 5 4 10 -3 6 -8 10 -11 10 -2 0
-4 -4 -4 -10z"/>
<path d="M9880 7573 c8 -3 19 -11 23 -17 6 -7 7 -6 4 4 -2 8 -12 16 -23 17
-13 2 -15 1 -4 -4z"/>
<path d="M10047 7563 c4 -10 2 -14 -4 -10 -6 4 -16 0 -23 -8 -10 -13 -9 -15
12 -13 17 1 25 9 26 25 1 13 -3 23 -8 23 -5 0 -6 -7 -3 -17z"/>
<path d="M9790 7551 c0 -6 4 -13 10 -16 6 -3 7 1 4 9 -7 18 -14 21 -14 7z"/>
<path d="M9960 7540 c0 -11 4 -20 9 -20 5 0 7 9 4 20 -3 11 -7 20 -9 20 -2 0
-4 -9 -4 -20z"/>
<path d="M9855 7530 c3 -5 8 -10 11 -10 2 0 4 5 4 10 0 6 -5 10 -11 10 -5 0
-7 -4 -4 -10z"/>
<path d="M9916 7517 c3 -10 9 -15 12 -12 3 3 0 11 -7 18 -10 9 -11 8 -5 -6z"/>
<path d="M9756 7498 c3 -4 11 -5 19 -1 21 7 19 12 -4 10 -11 0 -18 -5 -15 -9z"/>
<path d="M9957 7499 c7 -7 15 -10 18 -7 3 3 -2 9 -12 12 -14 6 -15 5 -6 -5z"/>
<path d="M9995 7491 c-3 -5 4 -12 15 -16 23 -7 26 -21 8 -28 -10 -4 -10 -6 -1
-6 22 -2 25 21 5 40 -12 10 -23 15 -27 10z"/>
<path d="M9856 7463 c-4 -9 -3 -20 1 -24 4 -4 9 3 9 17 2 28 -1 31 -10 7z"/>
<path d="M9803 7441 c-2 -23 -1 -23 6 -6 8 19 8 19 15 -3 4 -12 12 -20 17 -17
5 4 2 13 -6 21 -8 9 -13 19 -11 23 3 4 -1 8 -7 8 -7 0 -14 -12 -14 -26z"/>
<path d="M10130 7450 c0 -5 5 -10 11 -10 5 0 7 5 4 10 -3 6 -8 10 -11 10 -2 0
-4 -4 -4 -10z"/>
<path d="M9960 7446 c0 -5 8 -18 18 -29 16 -20 16 -20 -3 -13 -11 4 -16 4 -13
0 4 -3 1 -19 -7 -34 -12 -23 -12 -27 1 -27 8 0 13 6 10 14 -3 7 7 24 21 38 15
13 24 27 20 31 -4 4 -7 1 -7 -7 0 -8 -8 -4 -20 11 -11 14 -20 21 -20 16z"/>
<path d="M10047 7443 c-15 -14 -6 -25 10 -12 11 10 14 10 9 2 -4 -7 -2 -13 3
-13 6 0 11 7 11 15 0 15 -21 21 -33 8z"/>
<path d="M9896 7433 c6 -4 10 -16 8 -26 -1 -9 1 -15 6 -12 13 8 5 38 -11 43
-9 2 -10 1 -3 -5z"/>
<path d="M10023 7418 c2 -7 -3 -19 -12 -26 -14 -11 -13 -12 6 -2 14 6 20 16
17 25 -7 18 -17 20 -11 3z"/>
<path d="M10120 7410 c0 -13 11 -13 30 0 12 8 11 10 -7 10 -13 0 -23 -4 -23
-10z"/>
<path d="M9930 7390 c0 -5 5 -10 11 -10 5 0 7 5 4 10 -3 6 -8 10 -11 10 -2 0
-4 -4 -4 -10z"/>
<path d="M10045 7352 c-14 -10 -18 -35 -5 -27 9 5 14 -7 11 -27 0 -4 6 -5 14
-2 8 4 15 10 15 16 0 5 5 6 10 3 6 -3 10 1 10 10 0 13 -4 14 -20 5 -16 -8 -18
-8 -14 4 6 16 -8 28 -21 18z"/>
<path d="M9837 7331 c-4 -18 -2 -19 13 -11 23 12 35 30 21 30 -6 0 -11 -6 -11
-12 0 -10 -2 -10 -9 0 -6 11 -10 9 -14 -7z"/>
<path d="M10006 7315 c4 -8 8 -15 10 -15 2 0 4 7 4 15 0 8 -4 15 -10 15 -5 0
-7 -7 -4 -15z"/>
<path d="M9890 7305 c-7 -8 -16 -13 -19 -10 -4 2 -8 -2 -8 -10 0 -21 9 -18 30
10 19 27 17 34 -3 10z"/>
<path d="M9906 7285 c-3 -8 -1 -15 4 -15 6 0 10 7 10 15 0 8 -2 15 -4 15 -2 0
-6 -7 -10 -15z"/>
<path d="M2805 7284 c-695 -42 -1260 -126 -1825 -270 -214 -55 -265 -72 -180
-61 25 4 138 12 252 18 601 34 1224 -78 1908 -343 454 -177 865 -423 1280
-768 175 -146 581 -554 739 -745 331 -397 541 -708 744 -1102 l99 -193 1259 0
c833 0 1259 3 1259 10 0 6 5 10 11 10 5 0 8 -4 5 -8 -3 -5 1 -9 9 -9 20 0 19
13 -2 21 -9 4 -21 2 -27 -4 -13 -13 -36 -13 -36 0 0 6 7 10 15 10 17 0 20 16
5 25 -5 3 -15 -5 -21 -19 -14 -29 -33 -24 -23 6 4 15 2 19 -7 16 -14 -5 -66
59 -61 75 1 4 -2 7 -7 7 -5 0 -40 42 -77 93 -212 286 -529 621 -822 867 -88
74 -161 140 -161 146 -2 22 66 109 105 136 38 26 119 52 199 63 22 4 60 11 85
17 57 13 82 2 260 -120 343 -233 598 -471 887 -828 117 -145 233 -298 233
-308 0 -4 7 -14 15 -23 8 -8 12 -19 9 -25 -4 -7 -2 -8 4 -4 12 7 32 -23 32
-47 0 -20 -31 -31 -41 -15 -4 7 -6 15 -3 17 3 3 9 -1 14 -9 8 -13 10 -12 10 3
0 19 -17 22 -40 7 -12 -8 -12 -10 -1 -10 11 0 11 -3 1 -15 -6 -8 -9 -18 -7
-23 3 -4 2 -14 -4 -22 -6 -10 -9 -11 -9 -2 0 6 -9 12 -21 12 -16 0 -20 -4 -14
-17 5 -14 3 -15 -6 -6 -17 17 -4 43 21 38 18 -3 21 0 18 23 -2 22 -8 26 -27
24 -13 -1 -32 5 -42 14 -17 16 -18 15 -6 -10 8 -18 17 -24 30 -20 21 7 22 -9
2 -26 -8 -7 -15 -19 -15 -28 0 -13 -2 -13 -17 0 -23 19 -51 29 -55 19 -5 -13
-48 -24 -48 -12 0 5 10 13 23 17 22 7 22 7 -5 19 -15 6 -35 20 -44 30 -8 11
-13 15 -10 8 4 -6 0 -14 -6 -16 -8 -3 -6 -6 5 -6 15 -1 16 -4 6 -22 -8 -16
-13 -18 -19 -9 -6 9 -9 9 -15 1 -5 -9 -11 -9 -23 1 -13 11 -14 11 -10 -2 2 -8
15 -16 27 -16 12 -1 24 -4 28 -8 3 -3 -17 -4 -46 -2 -30 3 -49 1 -46 -5 3 -5
-1 -6 -9 -3 -21 8 -21 24 0 24 14 0 14 2 -1 16 -9 9 -18 15 -20 13 -4 -5 -8
-47 -6 -71 1 -22 43 -24 61 -3 14 17 30 20 30 4 0 -5 -4 -7 -10 -4 -5 3 -10 1
-10 -4 0 -16 197 -15 203 2 4 10 6 10 6 0 1 -10 150 -13 711 -13 l710 0 0 530
0 530 -141 107 c-626 478 -1558 1017 -2364 1368 -1057 460 -2193 763 -3295
879 -389 41 -525 48 -1050 51 -289 1 -552 1 -585 -1z m503 -179 c200 -13 366
-25 368 -28 4 -4 -357 -81 -470 -100 -52 -8 -88 -5 -251 21 -346 57 -577 80
-832 83 -68 0 -123 5 -123 9 0 12 148 31 320 40 219 12 565 3 988 -25z m1602
-296 c195 -46 371 -107 560 -194 95 -44 136 -55 980 -285 184 -49 490 -133
680 -184 190 -52 496 -134 680 -184 184 -50 468 -127 630 -171 162 -44 307
-83 323 -87 40 -9 46 -26 5 -19 -90 15 -1744 167 -1782 163 l-29 -3 -112 -375
c-62 -206 -170 -564 -240 -795 -70 -231 -135 -449 -145 -485 l-18 -65 -15 35
c-8 19 -46 109 -85 200 -38 91 -163 381 -277 645 -114 264 -231 536 -260 605
-53 125 -228 530 -280 647 -27 61 -54 77 -50 30 3 -48 13 -52 -285 114 -108
59 -249 131 -315 160 -133 57 -428 157 -547 185 -43 9 -75 20 -73 23 11 10
462 78 495 74 19 -3 91 -18 160 -34z m3793 -2915 c-7 -3 -9 -12 -6 -20 3 -8 1
-14 -5 -14 -8 0 -9 16 -3 38 1 1 7 2 14 1 9 0 9 -2 0 -5z m317 -19 c11 -13 10
-14 -4 -9 -9 3 -16 10 -16 15 0 13 6 11 20 -6z m-40 -25 c0 -5 -5 -10 -11 -10
-5 0 -7 5 -4 10 3 6 8 10 11 10 2 0 4 -4 4 -10z m-304 -7 c-10 -11 -37 -12
-30 -2 3 5 12 9 21 9 9 0 13 -3 9 -7z"/>
<path d="M9970 7280 c0 -5 5 -10 11 -10 5 0 7 5 4 10 -3 6 -8 10 -11 10 -2 0
-4 -4 -4 -10z"/>
<path d="M10086 7274 c-5 -13 -9 -14 -21 -4 -12 10 -12 8 -2 -14 11 -22 22
-26 22 -8 0 4 4 13 9 20 4 7 6 15 3 18 -2 3 -7 -3 -11 -12z"/>
<path d="M9926 7225 c3 -7 -1 -19 -9 -27 -13 -13 -13 -16 3 -26 22 -13 34 -4
19 14 -9 11 -6 16 9 21 20 8 20 8 -3 19 -18 9 -22 9 -19 -1z"/>
<path d="M9895 7221 c-3 -5 -1 -12 5 -16 5 -3 10 1 10 9 0 18 -6 21 -15 7z"/>
<path d="M9720 7211 c0 -6 4 -13 10 -16 6 -3 7 1 4 9 -7 18 -14 21 -14 7z"/>
<path d="M9820 7200 c-9 -6 -10 -10 -3 -10 6 0 15 5 18 10 8 12 4 12 -15 0z"/>
<path d="M9681 7144 c0 -16 3 -23 6 -16 2 6 10 9 16 5 7 -4 5 2 -3 13 -8 10
-16 21 -17 23 -2 2 -3 -9 -2 -25z"/>
<path d="M9775 7160 c-2 -3 5 -7 16 -7 10 -1 19 2 19 6 0 9 -29 10 -35 1z"/>
<path d="M9829 7152 c-1 -10 -1 -20 0 -24 0 -5 -3 -8 -9 -8 -5 0 -10 -5 -10
-12 0 -6 8 -3 20 7 11 10 17 21 15 26 -3 4 3 9 12 11 15 3 14 5 -4 10 -17 4
-23 2 -24 -10z"/>
<path d="M9780 7125 c-11 -13 -10 -14 4 -9 9 3 16 10 16 15 0 13 -6 11 -20 -6z"/>
<path d="M9865 7130 c3 -5 8 -10 11 -10 2 0 4 5 4 10 0 6 -5 10 -11 10 -5 0
-7 -4 -4 -10z"/>
<path d="M10020 7125 c-7 -8 -10 -18 -6 -22 3 -3 6 -1 6 5 0 7 7 12 15 12 15
0 17 -20 2 -31 -5 -3 -2 -9 6 -12 10 -4 13 2 13 19 -2 34 -20 49 -36 29z"/>
<path d="M9974 7094 c-11 -15 -23 -23 -32 -19 -12 4 -12 3 -3 -9 9 -11 8 -15
-3 -19 -8 -3 -17 -1 -19 6 -3 7 -4 2 -4 -10 1 -12 4 -20 9 -17 6 4 28 -26 28
-39 0 -2 -10 -4 -22 -3 -11 0 -23 -6 -25 -14 -3 -9 -1 -11 4 -5 7 9 17 11 39
6 3 0 -9 -13 -26 -28 -29 -24 -33 -25 -42 -10 -5 9 -14 17 -21 17 -7 0 -6 -4
3 -10 8 -5 11 -10 7 -10 -5 0 5 -12 22 -26 17 -14 31 -31 31 -37 0 -7 -5 -5
-10 3 -5 8 -10 11 -10 5 0 -5 5 -17 10 -25 7 -12 11 -10 18 10 5 14 7 29 4 34
-3 5 1 6 8 1 10 -6 12 -4 7 8 -3 9 -2 19 4 23 17 10 19 0 6 -26 -13 -26 -11
-60 3 -60 5 0 8 12 7 28 -1 19 2 26 12 24 12 -3 12 -1 0 14 -8 10 -9 15 -2 11
6 -4 14 -3 17 2 3 5 -3 11 -14 14 -11 3 -20 9 -19 14 1 4 0 10 -1 13 -15 38 3
79 25 60 8 -6 19 -2 34 11 12 11 29 18 37 15 7 -3 14 -1 14 4 0 9 -6 11 -42
14 -7 1 -13 -5 -13 -13 0 -10 -13 -15 -42 -17 -41 -2 -41 -2 -22 17 11 11 23
18 27 15 4 -2 14 3 22 12 13 14 12 15 -3 9 -20 -7 -22 4 -5 21 7 7 9 12 5 12
-3 0 -14 -11 -23 -26z m-46 -169 c-10 -22 -28 -35 -28 -20 0 5 33 45 37 45 1
0 -3 -11 -9 -25z"/>
<path d="M9802 7084 c10 -10 20 -16 22 -13 3 3 -5 11 -17 18 -21 13 -21 12 -5
-5z"/>
<path d="M9729 7055 c17 -33 31 -51 31 -40 0 6 -10 21 -21 35 -13 17 -17 18
-10 5z"/>
<path d="M9840 7049 c0 -5 5 -7 10 -4 6 3 10 8 10 11 0 2 -4 4 -10 4 -5 0 -10
-5 -10 -11z"/>
<path d="M9675 7039 c-4 -6 -5 -12 -2 -15 2 -3 7 2 10 11 7 17 1 20 -8 4z"/>
<path d="M9800 7019 c0 -5 9 -9 20 -9 11 0 20 2 20 4 0 2 -9 6 -20 9 -11 3
-20 1 -20 -4z"/>
<path d="M9856 7013 c-6 -14 -5 -15 5 -6 7 7 10 15 7 18 -3 3 -9 -2 -12 -12z"/>
<path d="M10045 7020 c3 -5 -1 -10 -9 -10 -8 0 -17 -4 -20 -9 -7 -11 13 -9 32
2 15 10 16 27 1 27 -5 0 -7 -4 -4 -10z"/>
<path d="M9734 7002 c3 -5 0 -13 -6 -15 -8 -3 -6 -6 5 -6 19 -1 23 14 5 25 -6
4 -8 3 -4 -4z"/>
<path d="M9866 6993 c-9 -10 -7 -25 3 -18 5 3 12 -3 14 -12 4 -14 5 -13 6 4 1
23 -11 37 -23 26z"/>
<path d="M9982 6984 c-7 -8 -8 -14 -3 -14 10 0 25 19 20 25 -2 1 -10 -3 -17
-11z"/>
<path d="M10015 6970 c-3 -5 -1 -10 4 -10 6 0 11 5 11 10 0 6 -2 10 -4 10 -3
0 -8 -4 -11 -10z"/>
<path d="M9638 6933 c7 -3 16 -2 19 1 4 3 -2 6 -13 5 -11 0 -14 -3 -6 -6z"/>
<path d="M9822 6910 c-1 -16 3 -32 9 -36 8 -4 9 -3 5 4 -5 8 2 12 19 12 14 0
24 4 20 9 -3 6 -14 8 -25 6 -12 -2 -17 1 -14 10 3 7 1 15 -3 18 -5 3 -10 -7
-11 -23z"/>
<path d="M9796 6912 c-2 -4 -1 -14 4 -22 7 -11 9 -9 7 8 -1 24 -3 26 -11 14z"/>
<path d="M9611 6866 c-10 -12 -8 -13 8 -9 12 3 18 9 15 14 -7 12 -10 11 -23
-5z"/>
<path d="M9695 6860 c-3 -6 1 -7 9 -4 18 7 21 14 7 14 -6 0 -13 -4 -16 -10z"/>
<path d="M9795 6840 c3 -5 8 -10 11 -10 2 0 4 5 4 10 0 6 -5 10 -11 10 -5 0
-7 -4 -4 -10z"/>
<path d="M9829 6849 c0 -2 -2 -11 -4 -20 -1 -9 3 -16 10 -16 7 0 12 6 11 13
-2 13 -15 31 -17 23z"/>
<path d="M9968 6836 c-20 -14 -24 -36 -8 -36 6 0 14 8 17 18 4 9 11 20 17 24
7 5 7 8 1 8 -5 -1 -18 -7 -27 -14z"/>
<path d="M9927 6833 c-11 -10 -8 -53 3 -53 6 0 10 -7 10 -15 0 -8 5 -15 12
-15 6 0 8 3 5 7 -4 3 -2 12 4 20 11 12 2 18 -23 14 -4 0 -5 11 -2 24 5 26 2
30 -9 18z"/>
<path d="M9876 6821 c-4 -6 -2 -11 3 -11 6 0 11 -5 11 -11 0 -5 -4 -7 -10 -4
-5 3 -10 0 -10 -8 0 -8 11 -17 25 -19 16 -4 22 -1 17 6 -4 6 -7 13 -7 16 0 3
-5 13 -11 24 -8 12 -14 15 -18 7z"/>
<path d="M9768 6803 c7 -3 16 -2 19 1 4 3 -2 6 -13 5 -11 0 -14 -3 -6 -6z"/>
<path d="M8713 3945 c-10 -11 -9 -15 8 -20 11 -4 23 -4 26 -1 4 3 -2 6 -12 6
-14 0 -15 3 -5 15 16 19 -1 19 -17 0z"/>
<path d="M8230 3940 c0 -5 5 -10 11 -10 5 0 7 5 4 10 -3 6 -8 10 -11 10 -2 0
-4 -4 -4 -10z"/>
<path d="M8487 3943 c-3 -5 -2 -16 2 -25 5 -15 8 -13 18 7 9 20 8 25 -2 25 -8
0 -16 -3 -18 -7z"/>
<path d="M8765 3939 c-4 -6 -5 -12 -2 -15 2 -3 7 2 10 11 7 17 1 20 -8 4z"/>
<path d="M8630 3930 c0 -5 5 -10 11 -10 5 0 7 5 4 10 -3 6 -8 10 -11 10 -2 0
-4 -4 -4 -10z"/>
<path d="M8300 3910 c0 -19 3 -21 12 -12 9 9 9 15 0 24 -9 9 -12 7 -12 -12z"/>
<path d="M8566 3917 c3 -10 9 -15 12 -12 3 3 0 11 -7 18 -10 9 -11 8 -5 -6z"/>
<path d="M8801 3920 c0 -8 4 -22 9 -30 12 -18 12 -2 0 25 -6 13 -9 15 -9 5z"/>
<path d="M8460 3910 c-13 -8 -12 -10 3 -10 9 0 17 5 17 10 0 12 -1 12 -20 0z"/>
<path d="M8510 3901 c0 -6 5 -13 10 -16 6 -3 10 1 10 9 0 9 -4 16 -10 16 -5 0
-10 -4 -10 -9z"/>
<path d="M8346 3884 c-8 -20 11 -36 35 -30 11 2 15 -2 12 -14 -4 -14 3 -17 41
-17 49 -1 56 6 30 31 -12 12 -20 13 -35 6 -15 -9 -19 -7 -19 5 0 12 -6 15 -19
10 -13 -4 -23 0 -29 11 -8 15 -10 15 -16 -2z"/>
<path d="M8494 3873 c3 -6 2 -14 -3 -18 -15 -9 -1 -35 18 -35 10 0 18 7 18 15
0 11 -7 14 -21 9 -17 -4 -18 -3 -6 5 13 9 13 12 1 23 -9 8 -11 9 -7 1z"/>
<path d="M6627 3052 c-15 -16 -17 -46 -17 -210 l0 -191 -222 -3 c-220 -3 -224
-3 -279 -31 -112 -54 -192 -180 -227 -354 l-18 -92 -61 -45 c-34 -25 -73 -62
-87 -83 -26 -37 -26 -41 -26 -219 0 -180 0 -181 25 -204 22 -20 36 -24 97 -24
l71 -1 12 50 c24 105 96 194 190 237 73 32 181 31 255 -3 98 -46 173 -142 186
-241 l6 -44 282 4 c154 2 284 7 287 11 3 3 11 25 18 48 14 51 75 130 130 169
36 27 41 36 60 114 58 239 200 399 389 439 35 7 221 11 542 11 l490 0 1 198
c2 365 -1 445 -18 465 -15 16 -78 17 -1043 17 -982 0 -1028 -1 -1043 -18z
m-189 -734 l3 -158 -200 0 -200 0 5 33 c28 157 89 260 166 276 18 4 76 7 128
7 l95 -1 3 -157z"/>
<path d="M2140 2977 c-51 -27 -921 -690 -931 -709 -17 -31 -13 -88 7 -114 11
-13 223 -194 472 -404 426 -358 455 -380 492 -380 27 0 48 8 67 24 l28 24 3
216 3 216 312 -2 312 -3 3 -367 2 -368 296 0 295 0 -3 573 c-3 568 -3 572 -26
628 -24 60 -74 119 -122 144 -78 40 -138 45 -612 45 l-458 0 0 210 0 210 -27
30 c-33 35 -78 46 -113 27z"/>
<path d="M7706 2255 c-90 -23 -176 -97 -226 -194 -24 -46 -59 -161 -65 -215
-6 -48 -12 -59 -44 -82 -20 -15 -57 -47 -83 -72 -61 -59 -71 -101 -67 -288 3
-122 7 -145 23 -163 27 -30 79 -44 135 -36 47 6 49 8 56 43 34 186 223 309
396 259 118 -35 200 -118 230 -235 8 -35 19 -63 22 -62 4 0 151 0 327 0 l320
0 0 25 c0 86 94 215 187 257 67 30 189 31 255 1 96 -44 169 -136 186 -234 l8
-44 96 -3 c152 -4 138 -59 138 543 l0 505 -52 0 c-752 7 -1807 4 -1842 -5z
m274 -315 l0 -150 -196 0 -197 0 7 41 c11 66 44 151 74 189 47 58 82 70 205
70 l107 0 0 -150z"/>
<path d="M6110 1778 c-55 -29 -105 -100 -114 -160 -19 -140 91 -257 232 -246
202 15 270 275 104 392 -35 25 -55 31 -110 34 -56 3 -75 0 -112 -20z"/>
<path d="M7649 1387 c-133 -70 -148 -270 -27 -357 144 -104 343 -5 342 170 -1
60 -26 120 -66 157 -60 57 -173 70 -249 30z"/>
<path d="M8977 1400 c-117 -37 -176 -192 -116 -301 71 -127 249 -147 343 -37
114 132 29 336 -142 345 -32 1 -70 -2 -85 -7z"/>
</g>
</svg>
